<?xml version="1.0" encoding="UTF-8" standalone="no"?>
<svg xmlns:rdf="http://www.w3.org/1999/02/22-rdf-syntax-ns#" xmlns="http://www.w3.org/2000/svg" xml:space="preserve" height="202" viewBox="0 0 200 201.99843" width="200" version="1.1" xmlns:cc="http://creativecommons.org/ns#" xmlns:dc="http://purl.org/dc/elements/1.1/"><g transform="matrix(1.25 0 0 -1.25 -33.158 1008.8)"><g><path d="m185.35 786.84c-1.6624 7.1125-7.9474 6.1181-10.002 5.7968-3.3753-0.53388-9.0734-3.178-13.762-5.4425l0.82232 2.3632 1.2676 3.4993s-0.72365 0.0531-3.3095-0.12905c-1.9786 0-4.2255-0.5111-6.2168-1.3056 0.39725 1.2955 0.50098 2.6542 0.29098 4.0054-0.56172 3.6688-3.3247 6.4597-7.5274 7.6413-6.8443 1.9255-18.8-0.13411-26.975-4.4785-5.0225 3.5322-17.469 7.6565-19.614 7.2339l0.51869-2.7554c-3.7878 1.2348-15.609 3.2387-18.073 2.305l2.009-3.7422 0.02783-0.0633c-8.0588 0.11133-22.147-0.46809-26.127-3.1628l2.973-2.7529c-22.069-4.44-31.165-15.78-31.411-23.53l12.975 4.8682-1.6396-5.144 12.439 4.0231-0.47062-4.6227 8.785 2.8263-1.0374-4.2989 9.1873 1.427-0.91594-4.7568 7.8513-0.28592-1.0576-5.0579 5.5387-0.31121-1.3056-3.6284c-6.056-1.16-11.833-2.88-17.235-5.15-12.987-5.44-23.382-13.7-30.064-23.88l-0.96402-1.4726-0.02277-0.0253-0.01012-0.0278-2.0697-3.3298-2.8237-4.557 5.3337 0.67811c0.05566 0.0101 5.7512 0.70087 10.516-0.39725 0.12398-3.6967 0.04555-26.833 0.04555-26.833s13.921 17.383 21.383 20.323c-2.1558-5.3211-3.8713-11.447-3.5373-14.579l0.2758-4.0408s4.9643 3.1476 5.8752 3.9092l0.33905-2.4746s5.1667 3.3652 6.4318 4.5468l0.52882-2.9325s4.691 3.6638 5.6222 4.5367l0.55665-2.467 1.6269 0.95895c-1.5257-4.3242-2.3329-8.876-2.3329-13.511 0-10.829 4.223-21.024 11.877-28.685 7.6666-7.6717 17.871-11.884 28.7-11.884 10.84 0 21.026 4.2128 28.695 11.884 7.659 7.6615 11.877 17.856 11.877 28.685 0 12.426-5.7208 23.974-15.141 31.572 5.2553-0.0911 10.265 0.20748 15.51 1.1993 14.544 2.7175 20.7 10.566 21.191 27.053 0.14675 4.6151-1.7282 10.822-5.5032 13.243-0.59967 0.38206-1.0931 0.83497-1.4701 1.5536 6.1889 0.76919 4.9972 4.4001 4.9972 4.4001 3.3399 1.8066 5.0579 4.648 4.6025 7.7982 0.32387 3.6309 0.73629 10.012-0.0607 13.395m-42.852-10.098c0.95136 2.6314 2.7377 5.1009 4.6784 6.9379v-3.4816c0-1.7788 0.73124-3.302 2.0571-4.3798-2.2949 0.46809-4.5089 0.77172-6.7355 0.92353" fill="#fff"/><path d="m77.051 5.0391c-0.454 0.003-0.901 0.0184-1.338 0.0468l2.613 4.8731c-10.703-0.2309-24.713-0.4958-31.703 2.123l4.031 3.764c-16.921 2.188-34.348 9.782-40.97 22.388l16.386-6.195-2.162 6.779 14.276-4.611-0.579 5.785 11.721-3.781-1.508 6.273 11.246-1.773-1.306 6.756 9.865 0.351-1.328 6.401 7.486 0.414-2.334 6.459s6.013 1.726 7.762 2.314l-0.164 0.299c-11.218 1.126-21.921 3.713-31.641 7.799-15.633 6.537-28.112 16.443-36.107 28.636l-1.197 1.82-2.5629 4.15s9.5709-1.22 16.611 1.22l7.014-5.72s-5.787-1.89-9.98-2.592l-0.008-0.036c16.617-20.276 47.658-31.156 81.426-28.224-0.02 0 12.58 1.18 12.58 1.18 18.74 1.764 42.05 4.002 50.77 3.714 0.53-0.019 1.06-0.043 1.58-0.062 4.27-0.196 9.12-0.673 12.55-1.457 0.32-0.076 0.65-0.15 0.95-0.233 0.04-0.012 0.08-0.025 0.13-0.041 0.48-0.129 0.93-0.277 1.38-0.435 0.15-0.06 0.3-0.118 0.45-0.178 3.64-1.603 4.17-5.232 3.12-7.955-0.44-0.98-1.16-2.04-2.45-3.57-2.29-2.701-2.23-4.966-1.07-6.838 2.46-0.345 5.46-0.785 6.87-2.992-2.37 0.809-3.87 0.655-4.7 0.396 0.58-0.566 1.24-1.072 1.64-1.537 0.86-1.088-0.12-1.88-1.21-0.988-0.52 0.417-1.98 1.43-3.32 2.847 0 0-0.01 0-0.01 0.006l-0.01 0.006c-0.47 0.478-0.9 1.016-1.28 1.582-0.01 0.01-0.02 0.023-0.02 0.029-0.27 0.386-0.51 0.797-0.71 1.217 0 0 0 0.006-0.01 0.012h0.01c-0.43 0.917-0.69 1.898-0.64 2.951 0.18 4.289 2.71 4.204 2.69 6.418 0 0.263-0.42 0.885-0.42 0.885-0.6 0.784-2.48 2.167-14.28 2.639 2.42-2.765 4.97-5.318 7.04-7.282 1.23-1.167 2.12-2.334 2.94-3.324 0.01-1.588 0.53-3.004 1.3-4.219-2.01 0.307-3.89 0.702-4.98 1.416-2.69 1.809-9.36 8.798-13.68 13.377-0.91-0.038-1.88-0.096-2.9-0.14-0.27-0.026-0.55-0.04-0.82-0.053-0.77-0.051-1.55-0.098-2.37-0.149-0.35-0.019-0.69-0.041-1.05-0.06-0.82-0.06-1.67-0.12-2.53-0.184-0.32-0.028-0.64-0.045-0.97-0.07-1.19-0.092-2.41-0.179-3.64-0.277l3.05-2.016-0.06-0.037 0.03-0.022-11.93-6.753 6.9-2.17-0.08-0.049 0.03-0.014s-0.05-0.025-0.15-0.066l-13.87-9.043c0.49-0.051 0.99-0.116 1.52-0.186 9.3-1.154 18.51-0.55 25.78 1.225 3.67 0.895 7.29-0.293 8.31-1.463 1.02-1.158 1.15-2.472 3.05-2.902 1.89-0.443 7.15-1.458 8.44-1.895 1.33-0.44 2.48-0.44 3.22 0.727 0.71 1.167 2.33 0.724 3.36 0.148 1.01-0.582 7.41-2.042 7.55 1.74-3.2-1.739-10.34-0.138-13.97 6.127 0.94 0.317 2.01 0.737 3.04 1.119 1.1-1.208 2.32-2.144 3.25-2.818 0.03-0.066 0.05-0.135 0.09-0.211 2.97-2.913 7.12-2.733 7.45 0.44 3.5-1.889 4.41-5.074 3.06-7.854-1.19-2.47-5.89-4.229-10.11-2.486-0.69-1.427-3.49-2.4-4.95-2.264-1.46 0.146-11.88 2.596-13.33 2.738-1.47 0.152-2.53 1.246-3.51 2.641-1.01 1.467-3.55 1.404-6.44 0.705-5-1.202-9.54-1.765-14.27-1.793 0.78-7.173 6.37-13.65 10.8-16.582 7-4.589 7.05-13.92-2.17-16.52-8.31-2.3147-23.57 0.6207-33.03 6.317-5.94-4.5419-13.03-7.8448-20.283-8.879l0.869 4.4355c-4.899-2.0341-13.324-4.735-20.125-4.6894zm101.61 38.008c-1.19 0.449-5.88 1.539-7.64 1.539 1.32 1.088 5.58 1.344 7.21 0.781l0.43-2.32zm-83.467 33.943l-11.056 0.354 0.418 12.57 11.32-0.371-0.096-2.928-6.873 0.217-0.072-1.971 5.598-0.179-0.094-2.936-5.596 0.192-0.062-1.807 6.615-0.213-0.102-2.928zm3.946 0.209l-0.381 12.571 4.452 0.132 0.13-4.379 1.35 0.039c2.07 0.064 2.36 0.611 2.31 2.252-0.03 1.117 0.06 1.926 0.16 2.207l4.5 0.137 0.01-0.381c-0.53-0.025-0.45-0.575-0.4-2.216 0.08-2.534-0.78-2.871-2.19-3.409 1.59-0.354 2.32-1.554 2.37-2.996 0.08-2.445-1.39-3.62-5.91-3.76l-6.401-0.197zm-19.666 0.766l-5.358 0.937-1.553 8.118-3.24-7.286-5.363 0.936 1.353 12.353 3.993-0.695-0.459-4.185-0.307-1.907-0.381-1.791 0.033-0.006 3.332 7.502 3.088-0.537 1.6-8.355 0.039-0.008 0.025 2.268 0.145 1.935 0.414 3.774 3.992-0.692-1.353-12.361zm36.587 0.271l-1.26 12.498 4.43 0.45 1.26-12.502-4.43-0.446zm13.81 1.09c-3.46-0.091-6.33 2.07-6.75 5.86-0.45 4.057 1.96 6.888 6.42 7.388 3.57 0.392 6.27-1.276 7.02-4.461l-4.25-0.467c-0.31 1.171-1.08 2.022-2.5 1.864-2.25-0.25-2.49-1.942-2.29-3.698 0.27-2.416 1.34-3.537 2.89-3.373 1.39 0.155 2.19 1.001 2.18 2.317l4.2 0.467c0-3.249-2.1-5.402-6.22-5.848-0.24-0.026-0.47-0.043-0.7-0.049zm-26.38 0.938l2.07 0.066c1.04 0.035 1.78 0.473 1.76 1.361-0.03 0.873-0.78 1.168-2.15 1.123l-1.75-0.054 0.07-2.496zm63.81 0.759l-4.25 0.2 0.19 3.996 0.3 2.849-5.16-6.63-4.17 0.201 0.58 12.554 4.26-0.199-0.18-3.976-0.3-2.846 5.15 6.603 4.17-0.197-0.59-12.555zm-24.03 0.034l-5.6 12.255 4.34 0.258 0.61-1.627 4.42 0.268 0.43 1.685 4.42 0.264-4.1-12.836-4.52-0.267zm-87.438 1.879l-4.311 1.511-2.58 14.11 4.153-1.455 0.209-1.817 4.222-1.48 0.772 1.474 4.223-1.48-6.688-10.863zm89.438 2.033l1.16 4.58-2.8-0.166 1.64-4.414zm-91.006 2.496l2.097 4.004-2.675 0.935 0.578-4.939zm40.203 16.555l-0.002 0.01c1.429 2.12 3.497 3.7 4.787 3.77h0.002c2.056 0.1 2.186 8.94 0 9.12-1.107 0.1-7.344 0.58-7.363 4.59-0.032 2.67 2.099 4 2.099 4-0.857-2.68 1.393-2.97 1.393-2.97l7.467-0.06 0.69 1.98 1.62 5.85s0.5 1.75 1.43 1.55c0 0-0.93 1.37-2 1.54 2.48 1.45 4.6 1.04 5.44-1.03 0.85-2.11-0.15-7.43-0.15-7.43l8.33 4.95s1.65 0.77 2.1-0.05c0 0 0.44 1.61-0.15 2.53 2.72-0.92 3.81-2.88 2.8-4.81-1-1.91-7.73-5.18-7.73-5.18h6.06s1.83-0.03 1.87-0.96c0 0 1.08 1.24 0.95 2.32 2.03-2.01 2.2-4.1 0.45-5.51-1.95-1.57-10.76-1.01-12.45-1.61-2.13-0.72-5.01-3.29-4.74-5.4 0.09-0.82-0.4-2.23 0.09-3.85 1.05-0.44 1.94-1.56 2.64-2.83h-0.01c-5.53-0.36-10.727-0.54-15.623-0.52zm-2.869 0.04c-8.382 0.17-15.865 0.94-22.659 2.39-0.085 0.01-0.16 0.02-0.242 0.04-1.616 0.35-3.197 0.74-4.744 1.16-0.107 0.03-0.203 0.06-0.31 0.09-1.547 0.43-3.066 0.9-4.549 1.42-0.022 0-0.042 0.01-0.051 0.01-1.483 0.52-2.941 1.09-4.361 1.68-0.045 0.02-0.094 0.04-0.135 0.06-4.333 8.11-8.682 20.59-7.809 24.56 1.417-0.62 5.16-4.02 6.448-5.97l0.765 4.59c1.882-0.86 7.41-6.79 7.41-6.79l0.969 4.3c2.075-1.25 6.609-6.25 6.609-6.25l1.098 4.4c2.265-1.38 4.939-3.08 7.719-4.95-4.757 7.4-7.531 16.21-7.531 25.69 0 26.21 21.254 47.47 47.465 47.47 26.22 0 47.48-21.26 47.48-47.47 0-19.34-11.52-35.94-28.04-43.37-1.08-0.09-2.17-0.18-3.29-0.29-0.09-0.01-0.18-0.02-0.27-0.03h-0.01c-0.7-0.06-1.41-0.13-2.13-0.19-1.09-0.11-2.2-0.22-3.34-0.34l4 2.25 0.22 0.12 3.01 1.31c4.6 1.86 7.7 3.21 8.99 5.04 0.69 1.02 1.05 2.15 1.05 3.26 0 0.42-0.05 0.83-0.15 1.24-0.05 0.2-0.12 0.41-0.19 0.63-0.02 0.01-0.02 0.02-0.02 0.03-0.09 0.22-0.19 0.43-0.31 0.67-0.01 0-0.01 0.01-0.01 0.01 8.06 7.35 13.14 17.91 13.14 29.7 0 22.16-17.99 40.16-40.15 40.16-22.2 0-40.172-18-40.172-40.16 0-11.16 4.526-21.24 11.832-28.51v-0.01c-0.24-5.48 4.63-6.92 8.707-7.52 0.149-0.51 0.244-1.23 0.244-2.05 0-1.02-0.129-1.98-0.353-2.5-2.303-0.72-4.866-3.05-6.346-5.88h0.016zm36.492 2.21h-0.05 0.05zm-9.64-0.98c0.39 1.28 0.4 3.62-0.93 3.81-1.86 0.25-2.94-0.24-3.94 2.01-1.2 2.62 1.36 5.06 1.36 5.06-0.52-2.76 1.38-3.08 2.46-2.71l9.09 0.38 11.39 5.66s1.75 0.49 2.07-0.39c0 0 0.68 1.5 0.23 2.5 2.54-1.34 3.29-3.32 2.02-5.17-1.44-2.06-9.92-4.68-11.36-5.69l-3.84-2.15c-1.37-0.51-2.34-1.63-2.63-2.7 0 0 0-0.01-0.01-0.01-0.59-0.07-1.18-0.12-1.79-0.19l-4.12-0.41z" transform="matrix(.8 0 0 -.8 26.526 807.06)" fill="#154281"/><path d="m128.04 787.04c1.4018-2.0874 1.4018-5.4096 0.34158-7.158-0.89317-1.5004-1.7813-4.0357-1.9128-6.8266 2.214 0.37953 4.3039 0.69075 6.2674 0.90076 0.36435 5.8372 4.7796 11.981 9.6275 16.057 3.1476 2.6416 1.9432 5.564-1.2221 5.9486-4.0888 0.49087-12.598-1.4296-16.568-4.5595 1.2904-1.3815 2.4594-2.849 3.4664-4.3621" fill="#fff"/><path d="m165.84 20.789c-5.03-0.016-11.7 4.733-11.83 8.01v4.795c0 4.086 5.26 5.389 10.63 3.217 5.38-2.189 13.69-5.696 19.81-8.739 3.43-1.717 6.79-2.837 8.75 0-3.52 1.892-6 5.475-6.59 8.533 6.66-0.471 7.95 1.933 9.14 5.184 0 0 0.89-10.363-0.38-15.752-0.97-4.137-3.35-5.692-8.89-4.812-5.52 0.876-17.9 7.422-22.71 9.607-3.03 1.379-5.42 0.563-6.57-0.898 1.29-1.594 4.38-3.687 7.59-3.241l2.03-5.836c-0.31-0.045-0.64-0.067-0.98-0.068zm16.75 34.094c-1.16 1.875-1.22 4.137 1.07 6.838 1.29 1.53 2.01 2.59 2.44 3.57-0.01-0.051-0.02-0.102-0.05-0.146 1.93 2.878 1.38 7.499 1.36 8.625-0.33 14.827-6.85 22.927-20.51 25.501-12.83 2.399-25.05 1.139-43.59-0.757l-9.86-1.004c-36.28-3.558-63.879 3.02-82.188 19.6v-0.04l-0.098-15.46-7.019 5.72c0.547 7.22-0.487 21.88-0.487 27.88 9.397-11.38 19.12-19.29 30.889-24.3 0.041-0.02 0.09-0.04 0.135-0.06 1.42-0.59 2.878-1.16 4.361-1.68 0.013 0 0.029-0.01 0.051-0.01 1.483-0.52 3.005-0.99 4.549-1.42 0.107-0.03 0.201-0.06 0.308-0.09 1.55-0.42 3.128-0.81 4.744-1.16 0.083-0.02 0.16-0.04 0.248-0.04 6.791-1.45 14.276-2.23 22.67-2.39 0.936-0.02 1.893-0.03 2.858-0.04 4.896-0.02 10.089 0.16 15.619 0.52 0.88 0.05 1.76 0.1 2.65 0.17l5.71 0.58 4.12 0.41c0.61 0.07 1.2 0.12 1.8 0.19 1.23 0.13 2.43 0.25 3.61 0.37s2.33 0.23 3.45 0.34c0.72 0.07 1.44 0.14 2.13 0.2 0.1 0.01 0.19 0.02 0.28 0.03 1.12 0.11 2.21 0.2 3.29 0.29 11.67 0.99 21.07 1.15 31.09-0.74 17.13-3.21 23.31-12.427 23.87-30.734 0.16-5.098-2.01-11.576-5.41-13.746-3.19-2.055-4.06-7.001-4.09-7.017zm-38.4 66.707c-0.43 0.57-1.03 1.15-1.82 1.7l1.11 2.58-1.58 1.82 5.77 2.4 1.71-1.96-5.17-2.14 1.24-1.44-1.26-2.96zm-54.774 1.2l-2.953 4.59 1.639 2.02 2.462-3.84c-0.528-0.78-0.952-1.72-1.148-2.77zm9.775 2.28c-1.41 0-2.786 0.01-3.257 0.01-0.291 0.21-0.839 0.6-1.414 1.01l-0.26 1.27 5.004-0.54-0.073-1.75zm38.409 1.13l-1.28 2.26 2.87 4.17-1.19 2.14 6.15 1.2 1.27-2.27-5.48-1.09 0.92-1.67-3.26-4.74zm-42.668 2.11l-4.342 4.52 1.199 2.32 3.887-4.04 0.894 1.69 5.74-0.15-1.21-2.34-5.036 0.15-1.132-2.15zm38.568 5.82l-0.79 2.49 3.61 3.5-0.75 2.31 6.28-0.03 0.79-2.49-5.58 0.03 0.59-1.8-4.15-4.01zm-34.807 1.31l-5.152 3.56 0.719 2.5 4.619-3.15 0.514 1.81 5.687 0.98-0.73-2.5-4.977-0.86-0.68-2.34zm32.327 7.27l-0.29 2.58 4.25 2.72-0.27 2.39 6.13-1.27 0.29-2.58-5.48 1.14 0.22-1.91-4.85-3.07zm-30.03 0.44l-5.758 2.46 0.209 2.58 5.159-2.2 0.16 1.91 5.36 2.07-0.22-2.58-4.71-1.84-0.2-2.4zm0.72 7.98l-6.118 1.29-0.297 2.56 5.475-1.11-0.23 1.88 4.84 3.1 0.31-2.61-4.26-2.71 0.28-2.4zm28.6 0.44l0.21 2.59 4.71 1.82 0.2 2.41 5.75-2.45-0.21-2.6-5.15 2.2-0.15-1.9-5.36-2.07zm-29.46 7.54l-6.266 0.04-0.807 2.48 5.598-0.03-0.594 1.8 4.139 3.99 0.81-2.47-3.62-3.5 0.74-2.31zm41.29 0.93l-4.6 3.16-0.53-1.82-5.66-0.98 0.72 2.5 4.97 0.86 0.68 2.33 5.16-3.55-0.74-2.5zm-49.859 5.51l-1.287 2.29 5.496 1.06-0.933 1.66 3.257 4.72 1.296-2.27-2.876-4.15 1.196-2.1-6.149-1.21zm52.349 0.81l-3.89 4.02-0.88-1.68-5.76 0.16 1.22 2.31 5.05-0.15 1.11 2.16 4.36-4.51-1.21-2.31zm-55.878 5.02l-1.711 1.96 5.16 2.15-1.24 1.45 2.277 5.28 1.696-1.97-1.995-4.65 1.586-1.82-5.773-2.4zm59.568 0.69l-3.03 4.72-1.2-1.47-5.6 1.29 1.64 2.02 4.91-1.14 1.08 1.34c1.05-1.03 2-2.14 2.92-3.29l0.92-1.42-1.64-2.05z" transform="matrix(.8 0 0 -.8 26.526 807.06)" fill="#ed1248"/></g></g></svg>
