<?xml version="1.0" encoding="UTF-8" standalone="no"?>
<svg xmlns:rdf="http://www.w3.org/1999/02/22-rdf-syntax-ns#" xmlns="http://www.w3.org/2000/svg" xml:space="preserve" height="200.09" viewBox="0 0 200 200.08881" width="200" version="1.1" xmlns:cc="http://creativecommons.org/ns#" xmlns:dc="http://purl.org/dc/elements/1.1/"><g transform="matrix(1.25 0 0 -1.25 -45.924 1001.5)"><g><path d="m187.33 691.79c-0.0545-2.5668-1.3923-4.8069-3.5661-5.9766-4.2954-2.3111-24.877-14.288-24.877-14.288-0.93059-2.5692-4.3736-4.0278-4.3736-4.0278-0.63934-1.1413-2.7799-2.6852-4.6743-3.2275-0.69617-0.20601-1.4184-0.26994-2.1359-0.19417-1.2053-1.0679-3.4193-1.1271-3.4193-1.1271l-7.414-4.3522s-0.753-2.6544-3.2156-3.8739c-1.4823-0.72696-3.0736-1.1295-4.7027-0.84535l-12.136-12.19-18.565 18.562s-2.8983-10.087-13.329-4.5535c0 0-3.2606-2.1122-7.4448-0.3173-1.0798 0.48069-2.0364 1.2266-2.8013 2.1074 0 0-5.7256 0.22733-7.2103 5.3089 0 0-1.2953 0.34572-2.33 1.5178-1.6457 1.8352-1.7404 3.8645-1.7404 3.8645-2.6568 2.3987-3.4477 7.0872-0.61329 10.547 2.2685 2.7634 5.9317 5.7233 8.875 7.8852l-34.044 34.354 37.098 37.089c-6.5876 3.8337-8.6311 7.6413-8.6311 7.6413-0.97795 0.40492-2.0104 1.4255-2.0104 1.4255-4.4564 0.67486-6.4715 4.0231-7.6129 6.4834l-1.8399 4.0065s5.9648-0.21074 12.039 1.0348c5.4817 1.139 11.97 1.8209 18.605-1.622 1.873-0.96375 3.1115-1.8091 4.7358-3.6182l26.819 26.755 26.497-26.582s2.8297 2.5124 4.6151 3.4453c6.6255 3.443 13.116 2.7373 18.595 1.622 5.6144-1.1271 11.937-1.0348 11.937-1.0348l-1.7996-4.1391c-1.0419-2.3466-2.7823-6.2655-7.4495-6.803 0 0-1.3568-1.0395-2.4768-1.3971l-0.89744-1.3474-4.241-3.7721c-0.85009-0.71748-2.1856-1.4539-2.1856-1.4539v-1.1556l36.603-36.577-21.775-21.783s-0.17759-0.0568 1.3805 0.83587c2.2353 1.2787 4.93 1.2171 7.2174-0.14444 2.7136-1.6173 4.5559-4.9513 4.4943-8.0817" fill="#fff"/><path d="m181.05 697.59c-1.4586 0.85719-3.1044 0.89271-4.5062 0.0758-4.0847-2.3324-14.953-9.3675-25.754-16.36-1.1129 0.40965-2.1714 1.0514-2.9883 2.3963 0.0213 0.0332 0.15392 0.16812 0.15392 0.16812 0.55172 0.54462 0.82403 1.2668 0.82403 1.9891 0 0.65828-0.22732 1.326-0.69143 1.8612 0 0-0.31494 0.35992-0.53752 0.61092 0.0639 0.13497 0.21311 0.42386 0.21311 0.42386 0.20128 0.40965 0.3031 0.84535 0.3031 1.2763 0 1.0016-0.54226 1.9725-1.4918 2.4816 0 0-0.43569 0.23679-0.82877 0.45227-0.0426 0.47359-0.09 0.98979-0.09 0.98979-0.0213 0.30547-0.10893 0.58725-0.22732 0.85956l5.4841 2.8178v7.3311c2.4626-1.2645 5.4912-1.5581 8.5932-0.52805l2.2353 0.75063-1.9914 1.2432c-1.3237 0.8264-2.1761 2.6142-2.1761 4.544v49.729c0.72222 0.37413 1.4066 0.84298 2.0743 1.3947-0.33624 0-3.9686 1.8375-5.0579 2.4177 2.2708-1.1129 7.118-1.3687 8.8726 0.93296-0.0781-0.0142-3.9 1.9346-5.1929 2.5858 4.0136-1.2574 8.2404-0.82167 9.7345 1.1674 3.6987 0.0284 4.8945 2.8936 5.9695 5.3373-1.9464 0-5.7943 0.60619-8.1693 1.0869-5.7541 1.1887-11.179 1.5107-16.668-1.3616-4.9726-2.5787-8.0723-8.2877-9.718-12.332h-11.811c0.32441 0.3836 0.63461 0.78852 0.88797 1.255 0.1255 0.22495 0.17523 0.45227 0.17523 0.67959 0 0.37414-0.24626 0.72932-0.42859 1.1011 0.53515 0.84772 0.85955 1.731 0.97795 2.2945 0.0379 0.15865 0.0545 0.33151 0.0545 0.502 0 0.73169-0.33151 1.4515-0.93059 1.9133-0.42149 0.34572-0.94481 0.502-1.4705 0.50674 1.3994 0.60856 2.6994 1.1721 3.9331 1.7025 0.0545-0.0426 0.0734-0.1113 0.13497-0.14918 0.89034-0.52095 2.0151-0.42623 2.7989 0.23442 1.6883 1.4113 1.6481 3.9568 0.89271 5.7138-0.34335 0.82403-1.1248 1.9535-2.8747 2.6-2.1454 0.79325-5.0105 0.57067-7.3335-0.005-0.15155 0.19417-0.23206 0.41202-0.40965 0.58488-1.2621 1.184-3.2843 1.622-5.4226 1.184l-5.9388-1.9725-4.589-1.5581c-0.009-0.005-0.54462-0.15866-0.54462-0.15866-1.3663-0.40728-3.4382-1.0206-5.5102-0.16101-0.69617 0.29835-1.4918 0.251-2.1453-0.13024-0.65828-0.37413-1.1035-1.0324-1.2053-1.7783-0.0663-0.46175-0.10419-0.89981-0.10419-1.3284 0-1.4942 0.40492-2.7728 1.2076-3.8076 0.18233-0.22495 0.48542-0.34572 0.6938-0.53989v-0.0379c0.0308-0.54699 0.20838-2.0743 1.3024-3.244 0 0-0.009-0.0118-0.009-0.0166 0-0.22258 0.0284-0.4357 0.09-0.64644 0.42859-1.551 1.2076-2.5408 2.1832-3.2393 0.0237-0.28416 0.0663-0.56357 0.19416-0.83115 0.13971-0.24152 0.26995-0.46174 0.41439-0.66775h-10.878c-1.641 4.0444-4.7264 9.7535-9.7061 12.332-5.5007 2.8723-10.904 2.5503-16.668 1.3616-2.3821-0.48069-6.2182-1.0869-8.1764-1.0869 1.0892-2.3584 2.7113-4.7879 6.2726-4.9324 1.0892-2.0696 5.4249-2.8297 9.4172-1.5723-1.2763-0.65118-5.0887-2.6-5.1905-2.5858 1.7712-2.3016 6.6349-2.0459 8.8963-0.93296-1.0916-0.58015-4.743-2.4177-5.065-2.4177 0.88324-0.73405 1.7854-1.326 2.8036-1.7215v-49.402c0-1.9299-0.85008-3.7176-2.1785-4.544l-1.9914-1.2597 2.2306-0.73406c3.0736-1.0206 6.0643-0.73642 8.5151 0.47359v-7.3027l5.1124-2.6213c-0.09945-0.2581-0.16812-0.53752-0.19417-0.8193 0 0-0.04973-0.61329-0.08525-1.2124-0.38834-0.20364-0.82404-0.44043-0.82404-0.44043-0.21075-0.1113-0.39781-0.25337-0.56593-0.40965-0.05683-0.0545-0.09945-0.10419-0.14444-0.15392-0.11366-0.12076-0.21311-0.2439-0.29836-0.38123-0.04262-0.0592-0.08998-0.11367-0.12313-0.1847-0.10182-0.1847-0.1847-0.38361-0.24626-0.58251v-0.005c-0.48542 0.14681-1.0206 0.13024-1.4965-0.0995-3.6419-1.7333-14.485-8.8087-18.688-13.945-1.6528-2.0198-1.0135-4.6814 0.55173-6.095 0.3173-0.29126 0.65355-0.49727 1.0135-0.65592-0.04026-0.2439-0.05683-0.48069-0.05683-0.72932 0.02605-1.229 0.52331-2.3135 1.3829-3.0238 0.36229-0.31257 1.0869-0.90928 2.0743-1.1579 0.0047-0.19417 0.02841-0.3765 0.05683-0.56356 0.24626-1.2266 0.97085-2.3111 2.0672-3.0215 1.1579-0.80035 2.6237-1.0182 3.9828-0.77668 0.47122-1.0324 1.3592-1.9204 2.4745-2.4437 2.0672-0.95428 4.9869-0.46412 6.5449 1.9393 1.3071-3.3364 3.9592-3.1233 5.2663-3.0167l0.27468 0.0237c0.09235 0 0.20127 0.0189 0.29599 0.045 1.5415 0.32441 3.1209 0.85956 3.9 3.334 0.29599 0.95664 2.4626 8.8395 3.3388 13.507 0.75537-0.81694 1.8186-1.4255 3.2985-1.6102 0.20364-1.6504 1.8446-3.5969 4.3949-3.9094 0.21785-1.9346 3.0901-4.5038 5.1266-3.8929 0.92349-2.1477 3.6016-2.5597 5.1408-2.5597 2.0317 0 4.4044 1.1248 4.9111 2.8747 1.0419-0.045 2.1027 0.28178 3.0096 0.82167-0.77904-1.2953-0.82403-2.8534-0.10182-4.1818 0.0213-0.0426 0.40966-0.73879 0.40966-0.73879l1.8612-2.8652c1.3568-1.6126 3.6703-2.0317 5.4794-0.98506 0.98033 0.57304 1.5178 1.5226 1.7902 2.5526 1.7357 1.0514 5.3728 3.2275 9.9121 5.9482 0.14444 0 0.28889-0.0166 0.4357 0.009 1.5344 0.28889 2.6 0.8122 3.3885 1.4586 0.5612-0.27705 1.1863-0.37177 1.8067-0.18707 1.7357 0.5091 2.9694 1.7025 3.7626 3.1304 0.24863-0.026 0.502-0.0426 0.74116 0.045 1.7949 0.65828 2.9883 1.9559 3.2985 3.5519 10.556 6.2845 21.326 12.635 24.922 14.57 1.3426 0.72695 2.1288 2.0696 2.1595 3.6916v0.0971c0 2.143-1.3758 4.5559-3.2251 5.6522" fill="#154281"/><path d="m103.87 26.766c-0.31 0.022-0.62 0.066-0.93 0.13-1.26 0.264-11.258 3.889-12.993 4.377-1.764 0.477-5.538 1.934-9.537 0.258-0.533 3.777 1.155 5.789 5.994 6.307-1.471 0.109-3.077 0.727-3.699 0.307 0.101 2.829 1.5 3.169 5.404 2.533-1.278 1.376-2.53 1.863-3.797 1.65 0.939 3.38 2.85 3.721 5.991 1.826-2.12 2.635-2.304 3.049-3.266 2.635 0.85 1.584 1.794 2.007 2.233 2.315 0.42 0.319 1.879 0.548 2.841-0.1 0.936-0.631 1.666-1.691 2.299-2.422-0.426 1.572-0.433 3.07-1.599 3.381 5.487 1.998 5.377-0.001 6.668-2.111 0.721 2.625 2.751 3.778 6.231 1.8-1.16-0.973-1.19-2.221-1.1-2.966 0.33 0.405 0.64 0.943 1.39 1.373 2.55 1.459 4.86 0.059 6.04-2.051-1.18 0.539-2.26-0.576-3.95-1.633 3.68 1.362 4.21-1.123 4.53-2.611-1.8 0.849-4.2 0.192-4.74-1.826l1.59-3.141 7.26-3.129c-0.46-0.11-1.05-0.133-1.97-0.006-2.62 0.355-6.95 1.806-11.54 3.904l0.07-1.445c4.8-2.172 8.51-3.38 11.29-3.75 1.82-0.231 2.77-0.062 3.79 0.69 0.56-0.024 1.05 0.489 0.93 1.111 0.94-0.793 0.67-2.677 0.26-3.615-1.32-3.167-8.94-2.074-11.87-0.606 0.35-2.442-1.65-3.342-3.82-3.185zm-57.641 6.693c-4.053 0.139-11.429 1.916-13.954 1.916 0.696 1.672 5.789 2.264 10.315 1.672 1.225 2.418 5.974 2.949 10.144 2.123 0.438 2.519 6.501 8.578 10.6 9.795h4.137c-2.871-8.892-10.362-15.876-21.242-15.506zm107.18 0c-10.9-0.37-18.38 6.614-21.27 15.506h4.17c4.1-1.217 10.13-7.276 10.57-9.795 4.19 0.826 8.94 0.295 10.17-2.123 4.5 0.592 9.61 0 10.29-1.672-2.51 0-9.89-1.777-13.93-1.916zm-96.658 17.936c-1.749 0.325-3.195 0.379-4.494 0.263v61.102c0 1.86-0.557 4.11-1.877 5.95 2.995 0.41 5.829-0.09 7.812-1.78l2.256-1.94v12.78c1.436 0.73 38.599 19.77 39.801 20.38 1.2-0.61 38.28-19.68 39.71-20.4v-12.92l2.28 2.01c2 1.77 4.87 2.3 7.92 1.87-1.33-1.84-1.9-4.09-1.9-5.95v-61.215c-1.34 0.252-2.89 0.264-4.78-0.041l-3.42 3.629v39.482h-0.06c0 0.056 0.01 0.115 0.01 0.174 0 21.961-17.88 39.861-39.85 39.861-21.982 0-39.848-17.9-39.848-39.861 0-0.009 0.008-0.024 0.008-0.035h-0.041v-39.725l-3.527-3.634zm43.418 5.896c-20.721 0-37.58 16.851-37.58 37.564 0 20.715 16.859 37.585 37.58 37.585 20.73 0 37.59-16.87 37.59-37.585 0-20.713-16.86-37.564-37.59-37.564zm77.37 74.899c-0.34-0.02-0.68 0.06-1.02 0.26-4.72 2.68-17.24 10.77-29.71 18.84 0.8 0.44 1.52 1.05 2 2.01 0 0 0 0.63 0.01 1.02 0.4 0.48 0.75 0.97 1.05 1.49 12.86-7.66 25.75-15.24 30.17-17.63 2.11-1.14-0.11-5.87-2.5-5.99zm-110.18 2.21l-0.238 3.07-2.724 1.47 1.345 2.65-2.207 2.56 1.953 1.97c-0.032 0.1-0.079 0.18-0.115 0.28 0.018 0.03 0.057 0.06 0.074 0.1 0 0 0.566 1.28 0.953 2.17 1.042-0.4 2.86-1.11 2.86-1.11 0.311-0.11 0.668-0.08 0.943 0.13 0.27 0.18 0.424 0.49 0.424 0.82 0 0.01-0.028 1.06-0.061 1.97 1.161-0.13 2.823-0.31 2.823-0.31 0.396-0.04 0.745 0.15 0.949 0.46l2.461 0.97 2.23-3.97 1.463-0.52c-0.006-0.12-0.029-0.23-0.029-0.35 0-1.99 0.878-3.83 1.322-4.76l0.078-0.15-14.504-7.45zm65.303 0.2l-14.69 7.56-0.01 0.11c0.53 1.09 1.35 2.93 1.35 4.68 0 0.02-0.01 0.05-0.01 0.07l1.72 0.61 1.55 3.32 3.25-0.47c0.22-0.21 0.5-0.34 0.83-0.31 0 0 1.65 0.18 2.82 0.31-0.04-0.91-0.07-1.96-0.07-1.97 0-0.33 0.16-0.64 0.42-0.82 0.28-0.2 0.64-0.24 0.95-0.13 0 0 1.82 0.7 2.85 1.1 0.4-0.89 0.97-2.16 0.97-2.16 0.02-0.04 0.05-0.07 0.07-0.11-0.03-0.09-0.07-0.17-0.11-0.27l1.97-1.97-2.23-2.57 1.33-2.64-2.72-1.47-0.24-2.87zm-72.539 6.78c-4.614 2.36-17.055 10.56-21.746 16.3-0.308 0.38-0.441 0.81-0.441 1.24 0 0.66 0.307 1.31 0.793 1.73 0.399 0.37 1.207 0.84 2.13-0.07l1.631-1.68c1.927-1.97 2.721-2.78 3.547-2.79l0.787 0.32 0.293 0.18-0.025 0.53c-0.024 0.74-0.865 1.5-2.94 3.27 0 0-1.924 1.7-1.933 1.7-0.737 0.66-1.2 1.71-1.188 2.68 0.009 0.56 0.19 1.02 0.51 1.29 1.143 0.95 1.69 1.2 2.957 0.12l1.992-2.01c1.945-2.05 2.851-2.94 3.576-3.09-0.31-0.55-0.537-1.15-0.64-1.79-0.048-0.28-0.069-0.56-0.069-0.85 0-1.47 0.759-2.88 1.854-4.14 0.006-0.39 0.018-1.02 0.018-1.02 0.973-1.97 2.974-2.5 4.587-2.95 1.978-0.53 3.979-1.16 5.415-3.52-0.045-0.04-0.211-0.21-0.211-0.21-0.672-0.68-1.008-1.57-1.008-2.47 0-0.76 0.257-1.5 0.736-2.14-0.311-0.31-0.545-0.55-0.625-0.63zm24.484 1.87c-0.636 1.38-1.666 3.73-0.154 5.27 0.755 0.5 2.494 0.7 3.729 0.21-0.731 2.45 0.125 5.26 4.328 3.28-0.867 3.34 2.708 5.76 4.928 3.09 0.991 4.51 4.684 3.78 5.434 0 2.22 2.67 5.67 0.36 4.82-2.95 4.18 1.97 4.68-0.97 3.93-3.42 1.24 0.49 2.98 0.29 3.72-0.21 0 0 2.6-1.43-0.15-4.93l-14.93 7.67-15.655-8.01zm-20.365 5.5c-3.874 6.21-10.987 3.41-9.806 7.12-1.883 1.48-2.377 3.74 0.373 4.75-0.24-1.49 1.214-4.06 3.047-4.31-2.102 1.86-0.655 7.33 2.361 8.22-0.512-1.01-0.119-5.57 2.578-5.99-0.403 0.76-0.557 2.32-0.492 2.87 0.319 2.6 0.739 4 4.049 4.62-0.613-1.01-0.613-2.65-0.121-3.89 2.012 0.24 4.36-2.89 4.132-6.27-0.086-1.3 0.389-2.65 1.182-3.48l-1.916 0.22c-0.29 0.03-0.58-0.07-0.793-0.27-0.201-0.19-0.328-0.45-0.328-0.74 0-0.01 0.03-0.82 0.056-1.61-1.089 0.42-2.33 0.89-2.33 0.89-0.503 0.2-1.059-0.03-1.281-0.53l-0.711-1.6zm71.56 0l-0.72 1.6c-0.22 0.5-0.78 0.73-1.28 0.53 0 0-1.24-0.47-2.34-0.89 0.03 0.79 0.06 1.61 0.06 1.61 0 0.29-0.12 0.55-0.32 0.74-0.23 0.2-0.51 0.3-0.8 0.27l-1.9-0.21c0.79 0.82 1.25 2.17 1.17 3.47-0.22 3.38 2.15 6.51 4.14 6.27 0.5 1.24 0.5 2.88-0.14 3.89 3.33-0.62 3.73-2.02 4.06-4.62 0.07-0.55-0.09-2.11-0.5-2.87 2.71 0.42 3.11 4.98 2.59 5.99 3.01-0.89 4.46-6.36 2.37-8.22 1.82 0.25 3.28 2.82 3.04 4.31 2.75-1.01 2.24-3.27 0.36-4.75 1.18-3.71-5.93-0.9-9.79-7.12zm-52.025 3.04c-1.583 1.13-3.479 1.66-5.441 1.09-0.195 2.78 1.049 5.36 4.42 5.47 1.329-0.64 3.116-1.96 4.578-3.13-0.305-0.16-0.583-0.34-0.775-0.51-0.782-0.67-1.231-1.6-1.53-2.62-0.429-0.08-0.849-0.17-1.252-0.3zm31.675 0.15c-0.19 0.04-0.36 0.1-0.56 0.14-0.26 1.09-0.69 2.08-1.5 2.8-0.34 0.28-0.78 0.55-1.3 0.75 1.07 0.88 2.41 1.91 3.65 2.72 3.23 0.06 4.64-2.09 4.75-4.6 0.08-0.31 0.01-0.94 0.01-0.94s-0.35 0.15-0.74 0.18c-1.58 0.25-3.05-0.17-4.31-1.05zm-41.544 3.42c-0.006 0.07-0.029 0.12-0.029 0.19v0.08c0.018 0.23 0.029 0.46 0.029 0.7 0 2.82-1.152 5.62-3.07 7.45-0.42 0.4-0.899 0.64-1.357 0.92 0.139 0.39 0.287 0.79 0.287 1.22 0 0.76-0.22 1.51-0.676 2.11-0.805 1.06-2.08 1.72-3.401 1.47-0.666-0.13-1.24-0.31-1.773-0.49-0.252 2.24-0.439 4.67 0.064 5.84 0.758 1.83 1.465 1.8 2.883 1.75 0 0 0.62-0.02 0.653-0.02 1.243-0.19 1.904-0.52 2.328-1.87 0.541-1.76 4.108-14.96 4.461-18.95-0.048-0.04-0.2-0.2-0.399-0.4zm14.627 0.33c-1.862 1.24-3.983 2.78-5.031 3.69-0.021 1.61 1.562 3.36 4.193 3.36 1.016-0.89 2.724-2.84 4.088-4.37-0.873-0.65-1.544-1.5-2-2.47-0.464-0.03-0.865-0.1-1.25-0.21zm22.017 0.3c-0.04 0-0.08 0.01-0.13 0.01-0.47 1.01-1.18 1.89-2.12 2.53 0.83 1.18 1.95 2.87 2.91 4.21 2.62-0.05 4.19-1.86 4.1-3.44-1.36-1.05-3.24-2.35-4.76-3.31zm-18.038 2.84c-1.391 1.5-2.993 3.47-3.934 4.74-0.13 2.11 2.232 4.27 4.863 4.13 0.717-2.23 2.025-6.2 2.584-8.28-0.02-0.03-0.047-0.04-0.074-0.08-1.139 0.16-2.293 0.09-3.383-0.47-0.014-0.01-0.036-0.02-0.056-0.04zm15.018 0.15c-1.04 0.48-2.14 0.53-3.21 0.38-0.23 0.26-0.47 0.5-0.73 0.72 0.32 2.09 0.96 5.43 1.36 7.59 3.21 0.45 6.11-2.55 5.1-5.01 0 0.02 0 0.02 0.02 0.02-0.82-1.31-1.74-2.69-2.54-3.7zm-10.557 1.35c-0.871 1.89-1.774 5.29-2.416 7.56 0.683 2.33 3.084 3.53 4.839 3.53 1.584 0 3.684-0.94 4.604-2.83-0.34-2.16-0.78-5.63-1.39-7.8-0.75 0.43-1.57 0.69-2.46 0.7-1.045 0.01-2.165-0.37-3.177-1.16zm-45.858 2.1c-0.231 0.55-0.898 1.17-2.144 2.27-1.09 0.95-2.317 2.03-2.936 2.93-0.589 0.87-0.826 1.75-0.672 2.55 0.122 0.65 0.519 1.22 1.125 1.62 1.338 0.9 3.617 0.55 4.514-0.69l1.873-2.74c1.264-1.94 1.865-2.82 2.578-3.01-0.343-0.42-0.66-0.88-0.93-1.36-0.313 0.03-0.622 0.05-0.927-0.06-0.989-0.37-1.812-0.88-2.481-1.51zm77.445 0.67c-7.43 4.78-12.7 8.09-12.81 7.89-1.17-2.26-4.26-0.22-3.19 1.72 0.78 1.38 1.4 2.72 2.41 3.89 1.35 1.6 3.88 0.37 3.08-1.77 0 0 5.13-3.09 12.47-7.48-0.18-0.44-0.31-0.9-0.31-1.38 0-0.45 0.16-0.88 0.31-1.3-0.44-0.27-0.89-0.49-1.3-0.88-0.23-0.21-0.45-0.45-0.66-0.69zm-71.88 3.46c-0.128 0.68-0.77 1.59-2.034 3.36l-1.753 2.48c-0.344 0.54-0.446 1.06-0.295 1.56 0.216 0.76 0.928 1.32 1.523 1.6 1.08 0.5 3.135 0.36 4.117-1.53l3.026-6.26c-0.643 0.26-1.344 0.34-2.045 0.14-0.974-0.29-1.808-0.76-2.539-1.35zm51.25 8.12c-0.92 0-14.594 0.02-15.508 0.02v8.1c0.272 0.27 7.115 7.11 7.758 7.75l7.75-7.75v-8.12z" transform="matrix(.8 0 0 -.8 36.739 801.18)" fill="#fff"/><path d="m100.1 6.6621l-33.631 33.625c2.149 2.924 3.728 6.124 4.797 8.774h13.595c-0.177-0.258-0.341-0.534-0.515-0.836-0.163-0.335-0.217-0.684-0.246-1.039-1.217-0.874-2.192-2.111-2.725-4.049-0.08-0.264-0.117-0.531-0.117-0.809 0-0.006 0.015-0.019 0.015-0.019-1.37-1.463-1.588-3.371-1.627-4.055v-0.049c-0.263-0.243-0.644-0.393-0.869-0.674-1.006-1.293-1.511-2.892-1.511-4.76 0-0.538 0.048-1.083 0.13-1.664 0.128-0.929 0.687-1.751 1.51-2.218 0.817-0.477 1.809-0.537 2.682-0.164 2.587 1.074 5.176 0.308 6.887-0.202 0 0 0.668-0.191 0.677-0.197l5.737-1.947 7.421-2.467c2.68-0.547 5.21 0.001 6.78 1.481 0.23 0.216 0.33 0.487 0.52 0.73 2.9-0.719 6.48-0.997 9.16-0.008 0.66 0.246 1.2 0.547 1.65 0.869l-20.32-20.322zm21.72 21.727c0.24 0.343 0.42 0.673 0.55 0.978 0.94 2.196 0.99 5.379-1.12 7.143-0.98 0.826-2.39 0.944-3.5 0.293-0.08-0.048-0.1-0.133-0.17-0.186-1.54 0.663-3.17 1.366-4.91 2.127 0.65 0.006 1.3 0.203 1.83 0.635 0.75 0.577 1.17 1.473 1.17 2.391 0 0.213-0.03 0.428-0.07 0.626-0.15 0.705-0.55 1.81-1.22 2.87 0.22 0.464 0.53 0.909 0.53 1.377 0 0.284-0.06 0.566-0.22 0.847-0.31 0.583-0.7 1.091-1.11 1.571h14.77c1.12-2.747 2.79-6.087 5.05-9.088l-11.58-11.584zm-72.324 28.873l-43.129 43.118 43.395 43.41c3.865-2.64 7.426-4.76 9.371-5.69 0.595-0.28 1.262-0.31 1.869-0.12v-0.01c0.08-0.25 0.183-0.49 0.31-0.73 0.042-0.08 0.097-0.15 0.153-0.23 0.103-0.17 0.231-0.32 0.373-0.47 0.056-0.07 0.11-0.13 0.182-0.2 0.207-0.19 0.443-0.37 0.707-0.51 0 0 0.54-0.29 1.029-0.55 0.044-0.75 0.107-1.51 0.107-1.51 0.033-0.36 0.118-0.71 0.242-1.03l-6.39-3.28v-9.12c-3.064 1.51-6.802 1.87-10.647 0.59l-2.787-0.92 2.492-1.57c1.661-1.04 2.723-3.27 2.723-5.68v-55.498zm101.54 0.34v55.158c0 2.41 1.07 4.64 2.72 5.68l2.49 1.55-2.8 0.94c-3.87 1.29-7.66 0.92-10.74-0.66v9.16l-6.85 3.53c0.15 0.34 0.26 0.69 0.28 1.07 0 0 0.06 0.65 0.12 1.24 0.49 0.27 1.03 0.56 1.03 0.56 1.19 0.64 1.87 1.85 1.87 3.1 0 0.54-0.13 1.09-0.38 1.6 0 0-0.19 0.36-0.27 0.53 0.28 0.31 0.67 0.76 0.67 0.76 0.58 0.67 0.87 1.51 0.87 2.33 0 0.9-0.34 1.81-1.03 2.49 0 0-0.17 0.16-0.2 0.21 1.02 1.67 2.35 2.48 3.74 2.99 1.73-1.11 3.46-2.24 5.17-3.35l46.08-46.11-42.77-42.778zm-73.808 101.23c-0.538 2.89-1.488 6.79-2.337 10.11l25.205 25.23 13.91-13.92c-0.63-0.34-1.23-0.77-1.71-1.35l-2.33-3.58s-0.49-0.87-0.51-0.92c-0.91-1.66-0.85-3.61 0.13-5.23-1.14 0.68-2.47 1.09-3.77 1.03-0.63 2.19-3.6 3.59-6.136 3.59-1.927 0-5.272-0.51-6.426-3.2-2.546 0.77-6.139-2.45-6.408-4.86-3.188-0.39-5.24-2.83-5.495-4.89-1.849-0.23-3.178-0.99-4.123-2.01z" transform="matrix(.8 0 0 -.8 36.739 801.18)" fill="#ed1248"/><path d="m115.79 785.16-6.0808-6.0832 2.9457 0.9969 5.9388 1.9725c0.55647 0.11839 1.1035 0.16338 1.6362 0.16338l-3.6916 3.6892-0.74826-0.73879zm-32.879-80.25c-2.4508-1.21-5.4415-1.4942-8.5151-0.47358l-2.2306 0.73642 1.9914 1.2574c1.3284 0.82641 2.1785 2.6142 2.1785 4.544v34.733l-24.83-24.828 30.963-31.013c0.60856 0.34098 1.1461 0.62987 1.577 0.83351 0.47595 0.22969 1.0087 0.24627 1.4965 0.0971v0.007c0.06157 0.19891 0.14444 0.39781 0.24626 0.58014 0.03315 0.071 0.08051 0.12787 0.12313 0.18707 0.08525 0.13497 0.1847 0.2581 0.29836 0.37887 0.04499 0.0497 0.08761 0.10182 0.14444 0.15628 0.16812 0.15391 0.35519 0.29836 0.56593 0.40728 0 0 0.4357 0.23916 0.82404 0.4428 0.03552 0.59672 0.08525 1.2124 0.08525 1.2124 0.02605 0.27942 0.09472 0.55883 0.19417 0.81694l-5.1124 2.6237v7.3003zm74.661 39.952v-33.887c0-1.9299 0.85245-3.7176 2.1761-4.544l1.9914-1.2432-2.2353-0.75063c-3.102-1.03-6.1306-0.73643-8.5932 0.53041v-7.3335l-5.4841-2.8178c0.1184-0.27232 0.20601-0.5541 0.22732-0.85719 0 0 0.0474-0.51858 0.09-0.99216 0.39308-0.21312 0.82878-0.45228 0.82878-0.45228 0.94954-0.50673 1.4918-1.48 1.4918-2.4816 0-0.43097-0.10182-0.86666-0.30309-1.274 0 0-0.14918-0.29125-0.21312-0.42622 0.22259-0.251 0.53752-0.61093 0.53752-0.61093 0.0568-0.0663 0.0971-0.14207 0.15155-0.20364l33.317 33.362-23.982 23.982zm-30.7 25.325c0.52568-0.005 1.049-0.16339 1.4705-0.5091 0.59909-0.46175 0.9306-1.1792 0.9306-1.9133 0-0.16812-0.019-0.34335-0.0545-0.502-0.11839-0.56119-0.4428-1.4444-0.97795-2.2945 0.18233-0.37176 0.42859-0.72695 0.42859-1.0987 0-0.22969-0.0497-0.45701-0.17522-0.68197-0.25337-0.46648-0.56357-0.87139-0.88797-1.2526h11.811c0.0994 0.2439 0.21785 0.502 0.33388 0.75774l-9.1284 9.1165c-1.1769-0.50674-2.42-1.0442-3.7508-1.622m-22.85-6.7557c-0.97559 0.69854-1.7546 1.6883-2.1832 3.2393-0.0616 0.21075-0.09 0.42623-0.09 0.64881 0 0.005 0.009 0.0166 0.009 0.0166-0.78141 0.84298-1.0964 1.8564-1.2242 2.5763l-7.1369-7.144c0.11603-0.28178 0.24626-0.5683 0.35519-0.83351h10.878c-0.14445 0.20364-0.27468 0.42386-0.41439 0.66776-0.12787 0.2652-0.17049 0.54462-0.19417 0.82877" fill="#fff"/><path d="m123.51 65.439c-0.46 0.178-1.25 0.651-1.25 0.651l-0.3 0.187 3.18 2.61c0.19 0.023 0.74-0.267 1.11-0.489v4.026l1.6-0.977 0.08-1.89c-1.36-1.492-2.84-2.863-4.42-4.118zm-46.737 0.055c-0.509 0.409-1.009 0.825-1.498 1.254l0.196 2.451c0.1 0.142 0.695 0.484 1.091 0.676l-2.566 2.613 1.576 0.778c0.302-0.051 2.844-2.643 2.844-2.643l0.248-0.242-1.437-0.735-0.344-4.052c-0.018-0.024-0.065-0.061-0.11-0.1zm2.254 1.051l0.071 0.441 0.603 4.139c0.113 0.136 0.744 0.419 1.141 0.576l-2.393 2.826 1.635 0.643c0.281-0.077 2.67-2.916 2.67-2.916l0.221-0.277-1.467-0.565-0.612-4.006c-0.159-0.207-1.46-0.695-1.46-0.695l-0.409-0.166zm41.063 0.682c-0.3-0.048-1.57 0.572-1.57 0.572l-0.33 0.162 2.99 2.922c0.18 0.032 0.76-0.213 1.15-0.408l-0.26 4.043 1.65-0.85c0.15-0.213 0.41-4.227 0.41-4.227l0.03-0.451-0.4 0.211-1.1 0.547-2.57-2.521zm-46.065 0.681c-0.965 0.936-1.88 1.915-2.742 2.946l0.113 0.085c0.302-0.023 3.01-2.375 3.01-2.375l0.264-0.224-0.645-0.432zm9.248 0.422l0.088 0.424 0.901 4.072c0.124 0.139 0.751 0.344 1.154 0.477l-2.182 3.066 1.672 0.461c0.29-0.095 2.473-3.137 2.473-3.137l0.203-0.291-1.541-0.437-0.842-3.932c-0.177-0.201-1.504-0.586-1.504-0.586l-0.422-0.117zm33.197 0.338c-0.29-0.068-1.58 0.439-1.58 0.439l-0.33 0.141 2.75 3.184c0.19 0.05 0.79-0.151 1.2-0.287l-0.53 3.978 1.7-0.674c0.17-0.207 0.7-4.179 0.7-4.179l0.06-0.436-0.41 0.162-1.13 0.451-2.43-2.779zm-28.851 1.041l0.125 0.408 1.176 3.977v0.002c0.127 0.13 0.771 0.282 1.172 0.371l-1.981 3.269 1.717 0.317c0.264-0.125 2.25-3.377 2.25-3.377l0.195-0.319-1.56-0.283-1.115-3.834c-0.21-0.18-1.555-0.443-1.555-0.443l-0.424-0.088zm24.461 0.275c-0.28-0.088-1.61 0.289-1.61 0.289l-0.36 0.108 2.58 3.435c0.19 0.06 0.77-0.079 1.18-0.173l-0.79 3.927 1.74-0.517c0.18-0.193 0.96-4.088 0.96-4.088l0.08-0.424-0.41 0.119-1.14 0.322-2.23-2.998zm-19.996 0.709l0.137 0.389 1.408 3.867c0.148 0.11 0.785 0.184 1.205 0.235l-1.758 3.449 1.729 0.144c0.254-0.139 2.011-3.558 2.011-3.558l0.17-0.346-1.56-0.143-1.354-3.71c-0.216-0.163-1.586-0.286-1.586-0.286l-0.402-0.041zm15.156 0.164c-0.49 0.027-1.24 0.174-1.24 0.174l-0.37 0.071 2.33 3.677c0.17 0.071 0.78-0.001 1.2-0.078l-1.04 3.828 1.76-0.338c0.19-0.186 1.23-4.002 1.23-4.002l0.11-0.39-0.4 0.07-1.19 0.231-2.02-3.219c-0.07-0.028-0.2-0.033-0.37-0.024zm-10.658 0.385l1.813 4.076 1.218 0.116-1.541 3.613h1.754c0.244-0.154 1.764-3.729 1.764-3.729l0.15-0.361h-0.38-1.21l-1.601-3.564-1.582-0.151h-0.385zm6.158 0.057c-0.48-0.02-1.24 0.06-1.24 0.06l-0.39 0.032 2.07 3.879c0.16 0.088 0.8 0.058 1.23 0.046l-1.3 3.709 1.74-0.158c0.22-0.171 1.53-3.898 1.53-3.898l0.14-0.385-0.4 0.043-1.2 0.123-1.82-3.391c-0.06-0.035-0.2-0.054-0.36-0.06zm37.32 23.314c0 0.007-0.03 0.282-0.06 0.436-0.03 6.381-1.59 12.401-4.31 17.741v17.13c0.02 0 0.04-0.01 0.06-0.02 2.36-1.21 3.94-2.02 4.21-2.15v-3.91-8.97-0.04l0.1-20.217zm-79.701 2.116l0.09 18.261v0.09 12.69c0.281 0.15 1.873 0.96 4.28 2.19h0.029v-16.91c-2.552-4.93-4.114-10.46-4.399-16.321zm39.951 12.731c-0.24 0.14-1.775 3.72-1.775 3.72l-0.156 0.37h1.586l1.605 3.55 1.58 0.15h0.41l-1.84-4.07-1.22-0.11 1.56-3.61h-0.38-1.37zm-3.283 0.01l-0.404 0.04-1.359 0.12c-0.216 0.18-1.518 3.9-1.518 3.9l-0.129 0.38 1.6-0.15 1.822 3.39c0.258 0.14 1.6 0.01 1.6 0.01l0.386-0.05-2.074-3.88c-0.16-0.09-0.79-0.06-1.211-0.03l1.287-3.73zm8.283 0.25c-0.24 0.14-2.02 3.56-2.02 3.56l-0.17 0.33 1.59 0.17 1.36 3.69c0.21 0.17 1.57 0.31 1.57 0.31l0.41 0.05-1.55-4.26c-0.15-0.12-0.79-0.2-1.21-0.25l1.75-3.43-1.73-0.17zm-13.298 0.27l-0.408 0.07-1.338 0.25c-0.205 0.18-1.245 4.02-1.245 4.02l-0.103 0.39 1.576-0.31 2.033 3.21c0.267 0.12 1.614-0.14 1.614-0.14l0.375-0.08-2.354-3.65c-0.163-0.08-0.78 0-1.197 0.06l1.047-3.82zm18.298 0.48c-0.27 0.12-2.26 3.34-2.26 3.34l-0.19 0.32 1.56 0.31 1.12 3.83c0.21 0.18 1.53 0.43 1.53 0.43l0.41 0.08-1.27-4.37c-0.13-0.12-0.77-0.29-1.18-0.38l1.98-3.25-1.7-0.31zm-23.271 0.49l-0.408 0.11-1.322 0.37c-0.184 0.2-0.975 4.13-0.975 4.13l-0.074 0.41 1.56-0.46 2.237 2.99c0.284 0.1 1.589-0.28 1.589-0.28l0.36-0.11-2.553-3.42c-0.183-0.08-0.781 0.07-1.195 0.18l0.781-3.92zm28.181 0.69c-0.29 0.12-2.49 3.16-2.49 3.16l-0.2 0.3 1.54 0.44 0.86 3.94c0.19 0.18 1.51 0.55 1.51 0.55l0.41 0.12-0.97-4.47c-0.12-0.15-0.78-0.36-1.18-0.48l2.2-3.06-1.68-0.5zm-33.077 0.73l-0.397 0.16-1.299 0.5c-0.163 0.2-0.705 4.19-0.705 4.19l-0.056 0.44 1.562-0.62 2.4 2.78c0.288 0.07 1.588-0.43 1.588-0.43l0.342-0.14-2.767-3.18c-0.181-0.05-0.77 0.13-1.19 0.27l0.522-3.97zm37.887 0.96c-0.29 0.08-2.65 2.89-2.65 2.89l-0.23 0.28 1.48 0.59 0.6 4c0.16 0.2 1.46 0.73 1.46 0.73l0.41 0.15-0.69-4.59c-0.09-0.13-0.73-0.42-1.12-0.59l2.39-2.84-1.65-0.62zm-41.969 0.67l-0.391 0.19-1.262 0.64c-0.151 0.21-0.414 4.21-0.414 4.21l-0.031 0.45 1.49-0.74 2.6 2.52c0.299 0.05 1.556-0.59 1.556-0.59l0.317-0.16-2.975-2.89c-0.192-0.03-0.749 0.2-1.148 0.39l0.258-4.02zm46.489 1.22c-0.29 0.04-2.84 2.65-2.84 2.65l-0.25 0.25 1.44 0.75 0.35 4.03c0.09 0.14 0.67 0.47 1.05 0.66 0.03 0.02 0.05 0.01 0.07 0.01 0.19-0.15 0.37-0.31 0.55-0.47 0.02-0.05 0.03-0.08 0.04-0.13l-0.31-3.68c-0.1-0.14-0.69-0.47-1.09-0.67l2.58-2.6-1.59-0.8zm-50.677 0.84l-0.396 0.24-1.206 0.73-0.074 2.78c-0.003 0.04 0.01 0.07 0.01 0.1 0.349 0.39 0.701 0.77 1.068 1.15l0.315-0.21 2.756 2.27c0.281 0.04 1.517-0.7 1.517-0.7l0.309-0.2-3.164-2.63c-0.196-0.01-0.75 0.27-1.135 0.5v-4.03zm54.857 1.5c-0.3 0.02-3.01 2.38-3.01 2.38l-0.27 0.23 1.39 0.85 0.01 0.27c1-1 1.93-2.06 2.81-3.17l-0.93-0.56zm1.9 2.86c-1.31 1.57-2.75 3.02-4.28 4.37v9.94c1.49-0.77 2.92-1.51 4.28-2.2v-0.01-12.1zm-60.454 0.56v11.75c0.015 0.01 0.035 0.02 0.053 0.04 1.331 0.68 2.749 1.41 4.209 2.15 0.011 0.01 0.026 0.01 0.035 0.01v-9.71c-1.537-1.3-2.974-2.72-4.297-4.24zm51.084 7.59c-1.38 0.86-2.81 1.65-4.29 2.34l-0.01 8.64c1.42-0.73 2.87-1.47 4.3-2.21v-8.77zm-41.733 0.3v8.66h0.008c1.421 0.74 2.856 1.47 4.262 2.19h0.015v-8.6h-0.001c-1.501-0.65-2.99-1.51-4.284-2.25zm32.393 4c-1.4 0.44-2.84 0.79-4.29 1.06v10.42l0.02-0.01c1.31-0.68 2.75-1.41 4.26-2.19h0.01v-9.28zm-23.024 0.15v9.31c0.003 0 0.01 0 0.012 0.01 1.51 0.77 2.94 1.5 4.248 2.17h0.01v-10.49c-1.509-0.26-2.823-0.56-4.27-1zm13.604 1.55c-0.77 0.04-1.55 0.07-2.34 0.07-0.644 0-1.282-0.01-1.916-0.04v12.51c0.003 0.01 0.01 0.01 0.01 0.01 1.134 0.58 1.846 0.95 1.996 1.02 0.16-0.08 0.98-0.5 2.25-1.15v-0.01-12.41zm22.67 19.56c-0.72 0.1-1.45 0.21-1.83 0.27-0.64 3.87-3.79 5.98-5.61 6.19-0.25 2.43-3.32 4.74-5.23 4.74-0.07 0.6-0.31 1.19-0.67 1.75 0.82-0.42 1.73-0.65 2.65-0.61 0.52 0.01 0.95 0.28 1.42 0.44 2.09-1.25 6.12-3.81 10.91-6.89-0.44-1.18-0.69-2.45-0.69-3.73 0-0.22 0.01-0.44 0.03-0.65v-0.1c0-0.35-0.12-0.64-0.19-0.74-0.04-0.03-0.46-0.38-0.79-0.67z" transform="matrix(.8 0 0 -.8 36.739 801.18)" fill="#ed1248"/><path d="m99 30.627c-1.548 0.08-3.048 1.356-4.516 1.717-0.5 0.112-1.267 0.179-1.267 0.179 1.003 0.992 2.634 0.601 3.847 0.178 0.202 1.146 1.111 1.992 2.188 1.924 1.088-0.083 1.948-1.151 2.008-2.326 0.04 0.009 0.1 0.03 0.13 0.045 1.59 0.959 2.36-0.471 2.36-0.471-1.91 0.068-1.25-1.444-4.75-1.246zm-42.916 26.473c-0.604 0-1.096 0.483-1.096 1.101v50.549c0 0.6 0.492 1.07 1.096 1.07 0.595 0 1.088-0.47 1.088-1.07v-50.549c0-0.618-0.493-1.101-1.088-1.101zm88.376 0c-0.6 0-1.09 0.483-1.09 1.101v50.549c0 0.6 0.49 1.07 1.09 1.07 0.58 0 1.09-0.47 1.09-1.07v-50.549c0-0.618-0.51-1.101-1.09-1.101zm-72.665 21.513c-3.925 9.333-4.198 23.267-0.768 31.907l0.44-0.16 0.433-0.17 0.625-0.33c0.145-0.04 0.51-0.15 0.62-0.21-2.265-7.36-2.265-16.096-1.534-20.056 0.364 5.112 2.286 13.026 4.926 18.836l0.734-0.2 0.762-0.23 0.68-0.32c-1.539-8.191-0.718-19.981 0.49-26.94l-0.84-0.215-0.474-0.132-0.508-0.131-0.44-0.133c-1.133 5.097-1.496 12.763-1.351 17.348-1.785-4.337-2.244-13.9-1.717-18.174l-0.693-0.229-0.696-0.23-0.689-0.231zm56.235 0.116l-0.51 0.134-0.51 0.162-0.52 0.163-0.47 0.166c0.89 9.249 0.8 22.446-0.48 29.816l1.41 0.46 1.44 0.43 1.32 0.49 0.95 0.33 0.8-3.59-1.21-0.4-0.84-0.26-0.8-0.23-0.47-0.15c0.69-4.78 1.05-18.553-0.11-27.521zm-6.17 1.814l-0.58 0.133-0.59 0.162-0.62 0.135-0.59 0.164-0.87 6.562-0.92 6.397-0.87 6.234c-0.26 2.04-0.58 4.09-0.88 6.1l0.51 0.1 0.51 0.13 0.51 0.1 0.56 0.13 0.18-1.61 0.14-1.59 0.22-1.61 0.22-1.62 0.76 0.1 0.81 0.13 0.8 0.1 0.81 0.13 0.14 1.78c0.04 0.57 0.15 1.19 0.15 1.78l0.14 1.78c0.04 0.6 0.15 1.26 0.15 1.88l0.51 0.14 0.51 0.13 0.48 0.16 0.51 0.17-0.62-7.39-0.73-7.186c-0.19-2.309-0.44-4.653-0.66-6.896l-0.69-6.725zm-39.098 1.021l-3.393 26.056 0.473-0.13 0.51-0.17 0.515-0.13 0.508-0.1 0.992-6.7 0.58-0.1 0.799-0.09 0.803-0.07 0.84-0.1s0.623 5.54 0.623 6.04l0.549-0.1 0.509-0.1 0.51-0.1 0.551-0.07-2.957-23.675-0.584-0.097-0.621-0.133-0.625-0.131-0.582-0.1zm32.378 0.461l-0.51 0.098-0.51 0.1c-0.14 0.065-0.37 0.101-0.51 0.101l-0.51 0.098-0.06 15.385-3.27-14.924-0.73 0.064-0.76 0.102-0.73 0.064-0.18 21.967 0.47 0.03 0.47 0.06 0.48 0.04 0.51 0.1 0.11-12.486-0.06-1.73 3.27 14.676 0.73 0.13 0.8 0.17 0.81 0.16 0.18-24.205zm-28.035 0.364v2.703l0.661 0.068 0.617 0.065 0.66 0.064 0.654 0.068-0.218 20.153 0.55-0.1 0.51-0.06 0.547-0.07 0.545-0.07 0.185-19.657 0.62 0.037 0.654 0.029 0.621 0.035 0.66 0.034v-2.473l-1.828-0.166-1.824-0.166-1.785-0.231-1.829-0.263zm15.445 0.857c-2.96-0.032-3.652 2.575-3.691 5.576l-0.074 10.783c-0.035 3.335 0.806 5.315 3.585 5.275 2.95 0.17 3.71-2.44 3.75-5.505l0.08-10.984c0.03-3.398-0.88-5.311-3.65-5.145zm-7.304 0.035l-0.178 21.599 0.504-0.03 0.551-0.04 0.547-0.03h0.547l0.181-21.401-0.548-0.031-0.543-0.036h-0.551l-0.51-0.031zm7.304 2.24c0.98-0.065 1.49 0.895 1.46 3.038l-0.04 2.767v2.838l-0.04 2.836v2.836c-0.03 1.844-0.61 2.804-1.53 2.734-0.87 0-1.5-0.95-1.46-2.802v-2.803l0.04-2.801v-2.805l0.03-2.771c0.04-2.078 0.55-3.067 1.54-3.067zm18.04 0.959l0.13 1.151 0.09 1.404c0.07 1.024-0.01-0.456 0.02 0.569l0.3 3.199 0.29 3.263c0.11 1.057 0.22 1.091 0.25 2.145l-0.62-0.063-0.65-0.039-0.66-0.064-0.66-0.029c0.11-1.027 0.25-1.416 0.32-2.434l0.28-2.303 0.33-3.199 0.27-1.789 0.09-0.701 0.22-1.11zm-36.539 0.475l1.105 10.119-2.353 0.184 1.248-10.303z" transform="matrix(.8 0 0 -.8 36.739 801.18)" fill="#154281"/></g></g></svg>
