<svg xmlns="http://www.w3.org/2000/svg" width="2500" height="2500" viewBox="0 0 192.756 192.756"><g fill-rule="evenodd" clip-rule="evenodd"><path fill="#fff" d="M0 0h192.756v192.756H0V0z"/><path d="M43.72 120.277s-4.69-.52-1.824-5.195c1.824-1.299.26-2.078-.782-2.598s-.782-3.377 1.563-4.416c.521-2.338 5.821-49.371 36.738-58.966 0 0 .521-3.377 2.345-3.637 1.824-.26 8.599-3.377 8.859-4.936-1.042-.779-1.042-2.598-1.042-2.598s1.042.52 1.303-1.818c.26-2.338 0-5.195 0-5.195s.103-1.039-1.46-1.039c-.261-1.299 0-3.117 0-3.117s5.889-.52 5.368-11.689c-2.024-.422-.425-2.178 1.138-2.958-.346-3.135.256-6.281.256-6.281h1.784s-.312 4.043.469 5.602c-.172 1.141 1.982 1.733 1.564 3.117-.238.787-1.303 11.43 3.908 11.949l.521 2.598s-1.633.144-1.633 1.703.111 6.185.893 6.964 6.471 11.335 6.471 11.335 31.789 4.156 39.605 56.109c2.605 2.078 4.428 4.416 1.041 7.014-.52 2.598 4.691 5.975-1.562 8.572v14.547c.811 1.357 4.049 3.998 3.166 5.877-.781 1.299-2.885 2.289-.301 4.635.262 3.637 0 35.727 0 35.727H40.594V144.86s1.633-.236 1.042-1.463c-.409-1.178-3.388-2.598.26-5.715 2.084-2.598 1.824-.52 2.084-3.637.261-3.117-.26-13.768-.26-13.768z" stroke="#000" stroke-width=".951" stroke-linecap="round" stroke-linejoin="round" stroke-miterlimit="2.613"/><path d="M44.405 120.398s-4.636-.52-1.804-5.201c1.804-1.301.259-2.082-.772-2.602-1.03-.521-.772-3.383 1.545-4.424.515-2.342 5.199-49.33 36.62-58.956 0 0-.188-2.746 2.012-3.74 1.804-.26 9.065-2.812 9.002-5.121-1.03-.781-.375-2.683-.375-2.683s1.064.375.751-1.436c.257-2.341-.062-5.304-.062-5.304s.355-1.497-1.19-1.497c-.258-1.301.25-2.371.25-2.371s5.017-.839 4.502-12.026c-1.309-.578.506-1.701 1.124-2.962-.341-3.139.164-5.883.164-5.883h1.803s-.332 3.399.17 5.146c-.502 1.561 1.633 2.34 1.375 3.12s-1.145 11.771 4.006 12.292c.516 2.602.502 2.372.502 2.372s-1.674-.037-1.674 1.524c0 1.56 0 6.503.773 7.284.771.78 6.953 11.187 6.953 11.187s31.42 4.163 39.146 56.192c2.576 2.082 4.379 4.422 1.031 7.023-.516 2.604 4.635 5.984-1.545 8.586v14.568c.738 4.398 3.518 3.705 2.736 5.783-1.195 1.48-4.229.254-1.91 3.896.256 3.643.693 12.035.693 12.035H41.314v-11.309s2.451-.061 1.539-3.068c-.736-.846-3.453-1.764.566-5.299.911-1.301 1.145-.695 1.242-3.34.258-3.118-.256-13.786-.256-13.786z" fill="#e0d8af"/><path d="M132.797 97.594c0 19.727-16.041 35.719-35.828 35.719-19.786 0-35.828-15.992-35.828-35.719 0-19.729 16.042-35.72 35.828-35.72 19.787 0 35.828 15.991 35.828 35.72z" fill="#e5c14f"/><path d="M41.192 157.377h109.824v-11.17s-1.824-1.992-1.043-4.07l-107.954.133s1.258 3.418-.827 3.418v11.689z" fill="#b43a30"/><path d="M102.031 48.666l3.127-2.338-2.477-2.078-1.693-3.247s.521-1.299 0-1.688-2.865-.39-3.125 0c-.393-.13-3.519 0-4.691 0-1.173 0-1.042 0-1.173.779.391.26 3.648.26 5.081.389-.521 0-.912.91-.912.91s.391.52 1.042 1.299c-1.042-.26-2.475.52-2.475.909-.391 0-1.563.52-1.563.52l-.13.779c-.521-.13-7.556-.39-7.556-.39s-2.475.779-2.996 1.559c.781.39 10.422.39 10.422.39v1.169h-3.778l-1.104 1.028a.52.52 0 0 0-.729-.101l-.076.06a7.054 7.054 0 0 0-.825.052c.391-.649-1.173-.39-2.084-.39-.912 0-1.824.779-1.042 1.039.684.243 1.681.286 2.727.257-16.797 13.428-30.047 38.567-28.609 54.685.003.037.02.068.03.102-1.571.066-3.236.117-3.679-.146.174-1.039 1.215-5.023 1.215-5.023s.348 0 1.737-.172c.695-3.464 0-4.331-1.389-4.85-1.042.346-2.605 10.045-2.605 10.045s-.985.053-2.095.041c.003-.045.011-.088.002-.133-1.36-7.629 10.9-41.562 30.317-52.624a.519.519 0 1 0-.517-.902c-19.696 11.221-32.13 45.67-30.834 53.622-.525-.031-1.019-.086-1.39-.178-.695-5.023 1.391-6.928 1.391-6.928l-.174-2.771s.521 0-.695-.173c-.87 1.905-2.084 8.487-2.432 10.217-.868-.172-1.39.52-1.39.52l.173.867 9.554.172-.174.693s-7.121.174-9.205.174c-1.39.172-1.39.172-1.042 1.385.868.346 15.98.52 17.371.174 1.39-.348-.695-3.637-1.042-3.984-.131-.131-1.013-.113-2.104-.068.011-.049.022-.098.017-.15C56.988 87.98 70.703 62.466 87.807 49.48c1.108-.072 2.099-.14 2.631-.033-2.084.909-14.2 17.015-13.679 18.443 0 0 1.173.129 1.954-1.169.651-2.078 12.376-17.404 13.81-17.145-.391-.909 4.038 0 4.038 0l-.26 4.286 1.434.26.131-4.417s.781 0 1.822.13c.262 1.299.131 1.818.652 2.727-.262.78.26 4.936.65 7.793 3.258 2.078.652-4.806.521-5.845-.132-1.039.52-5.844.52-5.844zM112.859 49.873s-.488 3.864.902 4.787 21.881 20.372 24.201 47.912c.023.645-.496.902-.889-.266-.391-1.168-.26-4.545-1.562-6.624-.391.779-.391 1.56-.26 2.079.129.52.26 5.455 1.432 5.584-2.084.26-2.084-4.025-2.865-8.312-.391-1.299-1.182-.428-1.182-.428 0 .578 1.506 7.158 1.738 7.504-.117.693.23 1.617-1.16 1.732l.232.693 15.402-.348c-2.807-25.628-17.403-48.87-35.989-54.313zm27.995 53.602c-1.303-.129-1.303-2.207-1.303-2.207.912-1.428-5.732-24.937-14.33-36.367 12.896 11.819 16.936 38.705 16.936 38.705l-1.303-.131zm2.605-3.116c.391-3.768-5.211-25.587-21.887-42.732 3.387 0 25.795 30.912 23.189 45.719.001 0-.781-2.338-1.302-2.987z" fill="#429f88"/><path d="M111.281 59.965s5.471 6.624 6.123 8.962l1.172.129c.65-1.428-4.951-8.832-6.254-9.481-1.302-.649-1.041.39-1.041.39zM112.584 57.498s10.551 8.832 14.068 20.911c1.305-.13 1.693-.13.521-2.728-1.432-4.936-10.422-18.184-14.33-19.482l-.259 1.299zM150.58 139.193H95.517c-.394 0-.75.15-1.024.391l-52.752-.211c-.063.092-.271.461-.325.643-.086.129-.171.521-.126.711l52.684.205c.028.246.108.479.24.676l-52.716-.09s.179.266.246.377c.178.199.196.262.276.375l53.613.076a.317.317 0 0 0 .154-.035l54.187-.174c.291-.213 1.646-.357 1.602-1.42.178-.531-.662-1.278-.996-1.524z" fill="#429f88"/><path d="M78.451 143.09c-.875-1.416.782-1.947 1.824-2.986.651-.91 1.433-1.949.912-4.156.651-1.299.912-1.041 1.172-2.729s0-7.922.912-8.832c-.26-.648 0-.91-.781-1.039-.261-1.299-.13-4.156-.13-4.156s-1.172-.389-.651-3.377c-.782-.389-.782-2.727-.13-5.324-1.042-.65-2.736-2.857-2.084-4.676-.782-.65-.651-.65-.391-2.209-2.215-.389-5.211-2.857-2.084-5.844.651-1.559.13-2.469 1.954-3.768-.13-.909-.521-3.896.13-4.156.26-.649.26-3.247.26-3.247l1.563-1.429v-1.299s-4.951 2.728-5.602 3.377c-.652 1.04-1.954 1.429-2.085 3.117-.521 1.819-1.433 3.248-2.605 2.988-.261 1.168-1.042.909-1.042.909s-.261-1.04-.13-1.429c.13-.39-.521.909-1.303.909s-1.954-.649.782-3.636c-1.042-.649.261-.78-1.563-.78-.26-1.039-.26-1.688-.26-1.688s3.387 0 4.56-.779c1.172-.78 2.475-3.507 3.517-3.507.521-1.039.652-1.948-1.303-2.597-.13-1.299-.521-2.468 0-3.117.261-1.169.521-1.689.521-1.689l1.954-1.039.261-2.728s-1.955-2.467 4.56-5.584c.781-1.169 1.303-1.169 1.303-1.818 0-.65-.782-6.754 2.084-7.403s2.084.259 2.084.259 2.084-.779 2.606 2.468c.912 1.169 1.042 3.377.912 4.156 1.042-.52 1.563-2.078.911-3.637-.651-1.559-.521-2.857-.13-3.637s.651-4.286 2.084-4.286 4.95-1.429 6.122 2.467c.131 1.689-.26 2.208.783 3.118-.262 1.429-1.043 1.559-1.043 2.078s-.521 2.467-.652 2.987c.783-.26 2.998-2.987 3.648-3.118.391-.779.262-1.558.262-1.558s-.783-1.559-.393-3.767c.783-.779 1.824-.779.521-2.208s-3.127-5.325.912-6.754c-.912-1.039-2.996-3.247-2.996-3.247l.131-2.208 1.953-1.558 1.174-2.078s5.861 0 6.252.52c.391.519 3.389 2.597 2.867 4.026-.912 1.559-1.693 2.987-1.693 2.987s3.387 6.754 2.734 8.702c-.52 1.559-1.172 3.118-1.041 3.507-.131 1.039.781 2.337 0 2.598-.783.26-3.258 2.078-3.258 2.078s.781 2.337.262 2.728c-.521.39-3.518 3.247-3.908 3.767.26 1.298 1.172 3.636-.131 5.455-1.303 1.818-1.564 2.468-1.564 2.468l-.129 2.337s-.521 1.948-1.564 2.468c0 1.948-1.693 3.376-.912 3.896 0 0 3.518 2.337 3.648 3.767.131 1.429.26 3.117 1.303 3.377 0 1.168.521 3.506 2.475 4.286.652 1.039.262 1.559 1.174 1.818.391 1.299 4.037 5.586 3.646 8.053.521 1.299.391 1.818 2.736 2.078s1.955 3.637 1.824 4.676c1.693.391 3.256 5.844 4.299 8.703.912.779 3.648 2.207 4.951 5.715 0 0-.262 1.947-1.955 1.559-1.043-2.209-4.689-4.156-4.82-5.066-.129-.91-.912-2.078-1.953-2.988-1.043-.908-3.648-2.986-3.908-3.895-.783-.262-2.998-.52-2.998-.52s-1.301-.91-1.301-2.078c0 0-4.301-3.117-4.691-3.898 0 0-.129-4.414-2.084-5.324 0-.779.131.52 0-.779s-6.254-1.947-7.295-3.377c-.782 1.299-1.173 2.209-.782 4.287-.26 1.559.13 3.637-.652 3.637.913.908.652 1.428.521 1.947.391.779 2.215 2.857 2.215 2.857s1.303-.129 1.562.65c.262.779.262 1.428.912 1.559.652.129 1.043.389 1.303 1.299 1.303.648 2.215.389 2.346 1.299 1.041.389 3.127.518 3.127.518l.781 2.08.912.389s2.996-.129 3.387.65c1.303-.131 2.475-.262 2.736.129 1.303 0 2.996-.648 4.168 1.818 1.172.391 2.736 1.689 1.303 2.207-1.434.521-2.215.91-2.865-.129-1.303.129-4.951.26-4.951.26s-1.434-1.43-2.475-.648c-1.303.258-2.736.779-3.258.258-.521-.518-1.434-.777-2.865-.648-.652-.779-.912-2.469-3.127-1.299-.781-1.17-.781-2.598-3.648-2.209-2.084-.518-3.387-1.816-5.602-1.947-.521 1.299-1.694 3.508-2.605 3.637.912 2.209-4.69 7.922-3.257 10.521.391 1.688 1.433 2.207 1.042 2.727s-1.302 2.598-2.214 2.469c-.521.777-.912 3.377-1.303 3.506s-2.605 1.299-2.605 1.299-1.044 1.166-2.086-.523z"/><path d="M109.389 54.979s1.16.128 1.549 1.029c1.031-.515 1.934-1.929 1.805-3.215s-2.967-7.974-3.225-9.517c-1.031 0-1.291.129-1.291.129s.518 8.616.775 9.13c.129 1.029.387 2.444.387 2.444z" fill="#d4a373"/><path d="M108.227 54.85c.26.643 1.291 2.829 1.678 2.958-.773.514-3.225 1.8-3.354 2.443-.129-.644 1.033-1.287-.387-1.158-.516-.514-.645-1.028-.645-1.028s2.192-3.086 2.708-3.215zM106.809 60.637s2.064-1.028 3.225-2.314c.773.386 1.42-.514.773.386-.645.9-2.578 2.7-3.223 2.829-.26-.387-.775-.901-.775-.901zM110.807 56.65s-1.16-.385-1.289-1.028c.386-.129.902-.258 1.289 1.028z" fill="#b43a30"/><path d="M108.1 52.921s-.389-5.787-.26-6.301h-1.418s.902 3.087-.387 4.887v3.858l2.065-2.444zM104.357 58.836s1.549 1.544 1.42 3.086c.645.9 1.547 2.571 2.449 2.186-1.16 1.029-5.545 5.016-5.932 5.659.258.643.387.899 1.289-.129.902-.128 1.807 0 1.807 0s.773 4.116-2.451 5.53c0 1.286.387 2.958-.258 3.343-.645.386-.273-1.51-.789-3.181 0 0-.551-.504-.506.642.047 1.146.689 4.263.23 5.088-.461.825-.539 1.897-1.979 2.566.23.459.186.596.691.779 0 0 .559.212.559.927.6.597 1.076.955.719 1.194-.359.239-1.318 2.983-1.797 3.103 1.078-.239 2.156-2.028 2.275-2.864.6 0 1.916 1.67 1.916 1.67s-5.746 4.296-5.865 4.893c1.314.12 5.025-2.148 5.984-3.58.238 1.193.6 2.268 1.078 2.268-.48.478-2.994.955-3.473 1.551-.479.597-1.555 2.149-4.428 2.029-.958-.716-1.437-1.552 0-1.552.479-.835.119-1.074.119-1.074h-1.437l-.239.716-.839-.238s.12 1.79.718 2.267c.24 1.433.121.835 0 1.79.24.596-7.421 6.564-9.456 9.189-.837-.717.597-2.148 1.077-4.773-.239-2.746-.957-4.654-.358-5.014.599-.357 3.471-1.789 3.83-2.386l-.239-.835s-2.274 1.91-2.992 1.91c-.24-.835-.001-1.91-.839-2.506v-2.148s1.198 0 2.036-1.551c.958 0 1.914-.238 1.914-.238v.955h.839s-.359-2.028 0-2.268c.359-.239 1.316-.836 1.077-2.268a7.34 7.34 0 0 1-1.795-.239l-.359 2.268s-.836 1.432-1.316.716c-.598.12-1.198 2.625-2.035 1.91.239-.955.958-2.983.958-2.983h1.436s0-2.625.359-2.625c-.837-.717-2.273-2.268-2.394-2.984-.837.358-.719.358-.359 1.074.359.717 1.077 1.91 1.556 2.029.479.119.6.954-.119.835s-1.318-1.432-2.036-1.432c-.717 0-1.796.238-1.556-4.177.719-1.313 1.795-5.132 1.556-6.563-1.197-1.193-1.076 3.103-1.795 3.581-.958 0-2.872-2.147-3.59-2.387.359-1.194 2.514-5.371 2.514-5.371s.718-1.791 2.513-2.148c2.035-.955 4.07-1.312 4.07-1.312s.358 2.267 1.437 2.267c0 0 .838-.238.479-.596s-1.676-2.148-1.317-2.268c1.078-.358 1.916 1.551 2.753 2.147.12.598-1.317.478-1.317 3.581s2.036 12.412.718 14.201c2.155.477-.239-12.65 0-15.037 0-1.79 1.078-2.268 1.677-2.745.598-.477 1.197-1.073 1.076-1.432-.12-.358 1.556-.597 1.556-.597s-1.557 2.744-2.274 2.983c-.239 1.074-.478 5.966-.119 6.802.599-.954.238-5.847.718-6.444.479-.597 2.514-2.626 2.514-2.626l.121-1.671h1.076l2.873-3.222h.6c0 .001.591-1.797 1.671-2.271z" fill="#e0d8af"/><path d="M101.967 67.91s.719-4.057.479-4.654c.357-.478.598-.239.598-.239v-1.79l.6-.716v2.745l1.076-1.671s.359 1.312-.479 2.148c-.958.597-1.557 4.892-2.274 4.177zM90.475 69.7l.119 11.098h.6V69.103l-.719.597zM95.023 76.144s1.078 3.342.719 4.296l-.719-4.296zM86.884 76.025s0 2.386.599 2.864c.479-.955.599-4.177.599-4.177s1.674 8.234 2.512 8.711c.121-1.312-2.153-10.143-1.914-11.695-.958-.119-.598.12-.598.12s-1.077 3.342-.599 4.057l-.599.12zM95.861 84.736v-1.073l.239-.598 1.318.478-.24.835-1.317.358zM93.946 85.572s1.796-.358 2.035 0c.24.358.359 1.432 0 1.671-.359.238-2.274 0-2.274 0l.239-1.671zM97.418 85.333l-.119 1.194s1.676 0 1.914-.955c-.238-.836-.359-2.148-1.795-.239zM95.742 89.868v-1.91l1.436-.238s.121.716-.239.955c-.359.238-.717.835-.599 1.432l-.598-.239zM99.332 88.316s.838-.358 1.197-1.074c0-.955 0-3.222-.957-.119-.359.716-.24 1.193-.24 1.193z"/><path d="M96.579 97.982s2.753.119 3.591.238c.359.836 2.273 1.91 3.471 1.791s2.754 0 3.711.715c.6-.238 1.557-.238-.359-1.193-1.914-.953-4.908-.953-5.506-1.789 1.316-.717 1.438-.357 1.316-1.432-.836 0-1.795 1.193-3.949.357-.238-.477 1.316-1.074 2.873-2.267 0 0 3.232-.835 3.83-1.193.598.954 1.197 2.505 1.557 2.625-1.318.359-2.395.239-2.395.239v.716s3.232.598 3.592 1.074c.359.479 4.549 5.25 4.549 8.592.598 0 .836.717.836 1.193 0 0 5.387 2.387 3.473 5.133-1.916 2.744-1.916 2.268-2.514 2.268-.6 0-2.875-.598-2.875-.598l-.238-1.432s.84.119.84-.955c-.84-.955-2.754-2.746-3.113-3.58-.359-.836-.24-1.432-.838-1.432-.119-1.074 1.195-1.074.359-1.91-1.197-.477-4.789-2.385-5.508-3.102a12.525 12.525 0 0 1-3.23-1.314c-.958.001-3.234-1.312-3.473-2.744z" fill="#e0d8af"/><path d="M106.035 105.502l1.438.119s1.674 5.848 3.471 7.041c-1.198-.598-3.952-2.627-4.909-7.16zM83.533 122.447c.492.686 4.308.715 5.386-.477 1.078-1.195 2.993-4.535 2.275-9.787.958-4.057 1.795-6.801 2.633-7.518.12.836-2.274 6.443-1.675 7.518 1.076-.955 2.753-6.086 2.753-7.518s-.121-3.223.717-3.938c-1.076-1.314-9.096 4.057-10.173 9.904 1.077-.119 2.873-2.029 3.711-3.342.837-1.312.599.717.239 1.193-.36.477-2.993 3.818-4.31 3.699-1.317 1.91 1.437 5.252 0 5.609 0 0-.958 0-.958-.836-.719.359-1.197 3.699-.599 4.297 1.197-.715 2.393-.598 5.027-7.996.12 1.312-1.794 7.996-4.069 8.475-.957.717-1.555-.119-.957.717z" fill="#e0d8af"/><path d="M80.3 78.531c.697-.209 1.676 2.864.958 3.7-.719.835-7.781 4.892-8.021 5.966s-.6 3.222-1.317 3.341c-.358-.238-.239-.597-.239-.597s-1.916.478-1.916-.119c-.478 1.193-1.077 2.268-1.436 1.91-.359-.358-.358-1.313 1.916-3.461-.719 0-1.436-.239-1.795-.716s2.633-.716 3.711-1.312c.837 0 2.632-3.461 3.71-3.581.838-1.074 3.233-4.773 4.429-5.131z" fill="#d4a373"/><path d="M80.66 77.576s2.154 2.506 2.034 3.938c.838-.358.599-2.147 1.197-2.625-.719-1.074-2.993-2.984-3.231-1.313zM96.58 71.848c.694.51.958 1.67.958 1.67s.6-2.029.24-3.222c.717-.597.838 0 .838 0l1.076 2.983.359-3.341.719-.954s.838 5.966 0 7.04l-1.318.478-.596-2.039-.244.487s.395 1.775.064 2.419c-.309.341-.539.445-1.498.206.119-.834-2.872-7.398-.598-5.727z" fill="#c45f44"/><path d="M43.841 109.408a.52.52 0 1 0 0 1.038h17.891a.52.52 0 1 0 0-1.038H43.841zM63.934 113.686a.515.515 0 0 0-.465-.295H43.494a.52.52 0 1 0 0 1.04h1.25c-.01.059-.035.111-.035.174v2.598a1.041 1.041 0 0 0 2.084 0v-2.598c0-.062-.024-.115-.035-.174h4.238c-.011.059-.035.111-.035.174v2.598a1.041 1.041 0 0 0 2.084 0v-2.598c0-.062-.024-.115-.034-.174h3.892c-.011.059-.035.111-.035.174v2.598a1.041 1.041 0 0 0 2.084 0v-2.598c0-.062-.024-.115-.036-.174h3.543c-.01.059-.034.111-.034.174v2.598a1.041 1.041 0 0 0 2.084 0v-2.598a1.022 1.022 0 0 0-.575-.919zM45.057 120.316l1.911 1.213h19.107s1.737-.867 1.563-1.732c-1.737 0-22.581.519-22.581.519zM48.878 123.434s2.432 1.213 1.91 7.967l-1.215.346s.695-2.25 0-3.463c-1.563-.174-1.737 5.541-1.217 6.234 1.39.52 2.607.691 3.301-.174 0-2.078.173-10.217.173-10.217s-.867-2.772-2.952-.693zM57.042 130.881h1.042s.175.865.869.346c0-1.73 0-4.328-.695-5.021-.695-1.732-.694-2.078-1.389-2.078-.174-1.039 2.78-2.598 3.126-.174.347 2.426.174 8.832 0 9.871a12.647 12.647 0 0 0 1.042 1.213H57.39l-.348-4.157zM79.797 136.25c-2.612 0-8.532.057-9.921.518-1.173-.318-5.455-.65-22.218-.518a.52.52 0 1 0 .008 1.039c7.93-.062 20.899-.004 21.948.422.146.061.413.102.551.023l-.008.006c.584-.283 5.36-.451 9.641-.451a.52.52 0 1 0-.001-1.039zm-9.906.521c.051 0 .102.004.151.018.028.01.038.041.063.053a2.052 2.052 0 0 0-.214-.071zM74.934 136.076l3.648-.174-.347-5.367-1.563-.174c.174 5.541-1.042 3.811-1.042 3.811l-.174-4.676-1.042-.52s-.174 4.848-.174 5.887.694 1.213.694 1.213zM65.554 127.938s1.216-1.213 1.216-.693v7.1s.868 0 .868-.52.174-6.58.174-6.58 1.391.174 1.042-1.213c-.869-1.211-1.737-2.25-1.737-2.25s-.347-.52-1.042-.52c.347-1.039 4.169-2.252 3.648 3.637 0 5.367-.174 8.484-.174 8.484l-3.647-.172-.348-7.273zM107.068 135.902s3.996.691 3.996-.52c-.521-1.385-.35-3.463-.35-3.463s-1.215 0-1.215 1.039c-.869-.174-1.217.693-1.217 1.213-.692.52-1.909 1.038-1.214 1.731zM116.969 130.535s0 3.637-.867 4.676c.52 1.211 3.125 1.904 4.168-.174.348-2.078.348-8.486.348-8.486s-1.215-.52-1.215 2.598c-.695 1.559-.695 2.943-.695 3.637.695.693 1.391 1.387.174 1.732l-1.217.346.174-4.502-.87.173zM126.504 122.951a.506.506 0 0 0-.281.656c.092.252.377.381.635.314l.213.395c.113.27.271.643.682.656.182.006.439-.064.627-.439a.495.495 0 0 0 .051-.211.507.507 0 0 0-.279-.439c-.047-.027-.1-.031-.152-.039-.164-.379-.586-1.254-1.496-.893zM125.307 134.691l.174 1.211s3.301 1.039 3.301-1.559v-8.832l-1.391-.172v2.77c.695.693.523 1.559-.693 1.732-.869 1.039-.869 2.77 0 2.943.172.867 0 1.732 0 1.732l-1.391.175zM133.645 128.629s-.869 3.465-.521 5.369c.869.174.869-2.424.869-2.424l1.043.172-.174 2.598-1.564.174.174 1.039s2.955 1.041 3.648-.346c-.174-1.732-.174-10.219-.174-10.219s0-2.078-1.564-2.078c-1.562 0-2.082 1.213-.867 1.387.521 1.211 1.043 2.078.348 2.424.172 1.039.692 5.886-1.218 1.904z" fill="#429f88"/><path d="M148.855 136.234c-.154.053-.234.125-.568.188l-.236.047c-.641.297-4.479.25-8.461.002.141-.049.295-.113.482-.221-.521-1.385 0-11.949 0-13.682.695.174 3.301-.693 3.301-.693l-.869 1.732s.52 0 1.215.693c-1.041 1.387-.867 2.424-.52 3.289.346.867.174 3.984.174 5.543-.318.531-.43.986-.438 1.389-.352-.215-.564-.945-.611-1.285l.006-4.434a.52.52 0 1 0-1.042 0v4.502c.027.236.252 1.715 1.23 2.184.285.137.73.209 1.299-.021.566-.029 1.307-.229 1.812-.43-.174-.693-.172-8.139-.172-11.084s1.041-.691 1.041-.691.174 11.602 0 12.295c-.172.693 2.258.346 2.258.346l.348-16.451h-19.627l-.174 1.039 3.82.346v1.387s2.084-.174 4.168 0c2.086.174 1.391 1.73 1.391 1.73v12.297s.025.09.111.174l-39.541-.002a.611.611 0 0 0-.312.104c-.293.193-1.881.072-3.396-.264a.453.453 0 0 0-.127-.012l-6.253.172a.52.52 0 1 0 .029 1.039s6.092-.168 6.199-.172c.954.209 2.967.562 3.91.172h39.555c10.213.723 10.035-.125 10.135-.525a1.302 1.302 0 0 0-.137-.703zM149.807 112.523h-19.453v1.039h2.406l-.158 5.198 2.259-1.733v-3.465h2.977l.322 4.676 2.434.174.334-4.85h2.426l-.155 4.676 4.168.174.487-4.85h1.953v-1.039zM138.312 107.883c-.928 0-5.098-.809-5.443-.115l.463 1.154 18.18-.346s.811-1.039-2.547-3.117h-14.822l-.232.924s5.211.576 4.17 1.27l.231.23z" fill="#429f88"/><path d="M95.517 57.368s-3.126-1.299-3.257-1.819c.261-.909 1.563-2.727 3.648-1.688.781.39 1.693.78 1.693.78s1.172 1.429.521 2.078c-.521.26-.652-.78-.652-.78s-1.562.26-1.954.13c.131.779.001 1.299.001 1.299zM93.433 58.017l5.212.13s1.693.52-.521 1.429-4.3-.65-4.691-1.559z" fill="#b43a30"/><path d="M93.303 62.303c.26.91 1.824 2.468 2.605 2.338l.13-.649.651-.26v-.779l-.651-.52s.791-.653 1.042-.52c.252.133.131 1.688.131 2.078 0 .39 1.613-1.889 1.352-3.317-.781-.26-1.014.145-1.666.505-1.738-.072-3.334-1.084-3.855-1.733-.651.13-1.303-.26-1.303-.26l.521.909s.391 4.676-.261 4.805c.521.65 1.694 1.559 1.954 1.04-.65-.909-1.823-2.987-.65-3.637z" fill="#d4a373"/><path d="M92.391 37.496c.391.779 2.605 1.299 2.605-.649v-5.585h-1.042v5.065c.391.649-1.954.389-1.563 1.169z" fill="#429f88"/><path d="M96.689 37.755v-6.494s.261-.649.912-.779c-1.303-.26-5.732 0-5.732 0s.391-.39-.26-.779c1.173-.39 2.215-.649 2.215-.649l.391-1.559-2.605-.13.521-1.169h7.296s-.652-1.169-1.434-1.169c-.781-.39-1.042-3.117-1.042-3.117l.782-.39.26-.779-2.866.13v-1.818l.651-.13.26-.909.13-1.818h1.302v-.649h-2.214s-.912-.779-.521-.909 4.643-.227 4.643.163c.445 1.481-1.412 10.743 4.146 11.953.164 1.087.502 2.372.502 2.372s-1.824-.173-1.676 1.901c-.148 1.927.52 6.521.52 6.521l-2.404.08s-.65-.13-.65-1.04c0-.909-.131-4.935-.131-4.935h-1.303v5.845c.001-.002-.911.777-1.693.257z" fill="#429f88"/><path fill="#429f88" d="M94.996 29.053h.912l.13-1.428-.912-.13-.13 1.558zM97.342 27.625v1.298h.65v-1.298h-.65z"/><path d="M83.662 124.906s1.433.52 2.475.52c.782.91 1.042 1.43.261 2.467-.782 1.041-2.345 5.586-1.824 7.145-.521.91-1.823-.131-1.823-.52.52-1.69.39-8.963.911-9.612z" fill="#b43a30"/><path d="M82.099 136.855s1.563.131 1.563-.26c0-.388-1.563-1.818-1.563.26z" fill="#e0d8af"/><path d="M120.922 122.568c.26-1.559-2.867-3.766-3.779-5.064 0 0 .131-2.469 1.043-3.248 1.172.26 1.434 2.078 3.777 7.404.391 1.039-1.041.908-1.041.908z" fill="#b43a30"/><path d="M122.744 124.127s1.043-.389.131-1.428-1.824 1.817-.131 1.428z" fill="#e0d8af"/><path d="M112.844 113.088c.781.129 2.605-.131 2.996-.52-.129 1.168-.65 1.688-1.434 1.688-.781 0-2.474.779-1.562-1.168zM98.383 83.084s0-.649.521-1.169c.26.779 0 1.169-.521 1.169zM97.471 82.305l-.129-.779.65-.39s.131 1.169-.521 1.169z"/><path d="M120.082 117.293l-.299-.09c-.311.854-1.715.871-1.729.871v.416c.07 0 1.656-.027 1.996-1.146.006-.016.02-.02.025-.035h-.004c.003-.008.009-.01.011-.016zM119.164 115.602l-2.154 1.742.068.078-.004.002.133.162.006-.006.068.078 2.084-1.816-.201-.24zM83.532 126.465s2.996 1.039 3.257.65l-3.257-.65zM83.434 128.365l2.231.438-2.231-.438zM83.28 128.334a.158.158 0 0 0 .124.184l2.294.496c.085.018.104-.096.121-.18.055-.287.104-.139-.124-.184l-2.359-.48c-.085-.016-.039.08-.056.164z" fill="#dcbc44"/><path d="M45.086 146.127h2.789l1.018 4.963 1.47-4.963h2.754l1.475 4.969 1.008-4.969h2.774l-2.092 8.912h-2.876l-1.665-5.607-1.66 5.607h-2.88l-2.115-8.912zM62.505 151.629l1.033-3.199 1.035 3.199h-2.068zm3.163 3.41h3.068l-3.545-8.912h-3.235l-3.55 8.912h2.998l.477-1.475h3.315l.472 1.475zM69.174 152.104l2.781-.168c.061.428.184.752.37.977.303.361.735.543 1.298.543.42 0 .743-.094.971-.279.227-.186.34-.402.34-.648 0-.229-.108-.436-.324-.621-.217-.182-.717-.354-1.503-.518-1.286-.273-2.203-.633-2.751-1.082-.552-.451-.829-1.025-.829-1.725 0-.455.142-.889.424-1.299.283-.408.708-.729 1.275-.961s1.346-.35 2.334-.35c1.213 0 2.139.213 2.775.639.636.424 1.016 1.1 1.136 2.027l-2.759.15c-.073-.406-.228-.701-.464-.887-.236-.186-.562-.279-.977-.279-.342 0-.599.068-.772.205a.609.609 0 0 0-.259.494c0 .143.07.273.212.389.137.117.465.229.983.332 1.282.258 2.201.521 2.755.785.555.266.958.596 1.211.99s.379.836.379 1.322c0 .574-.168 1.102-.505 1.584-.337.484-.807.85-1.411 1.098-.604.246-1.366.371-2.285.371-1.614 0-2.731-.291-3.353-.871-.618-.58-.969-1.318-1.052-2.218zM79.292 146.127h2.935v3.125h3.201v-3.125h2.957v8.912h-2.957v-3.609h-3.201v3.609h-2.935v-8.912zM90.439 146.127h2.936v8.912h-2.936v-8.912zM95.517 146.127h2.741l3.594 4.943v-4.943h2.759v8.912h-2.759l-3.575-4.916v4.916h-2.76v-8.912zM111.322 151.805v-1.85h4.547v3.816c-.869.553-1.635.928-2.303 1.125-.666.197-1.457.297-2.373.297-1.127 0-2.045-.18-2.756-.539-.709-.359-1.26-.896-1.65-1.609s-.586-1.533-.586-2.459c0-.973.213-1.82.641-2.543.428-.721 1.053-1.266 1.877-1.637.643-.289 1.508-.434 2.596-.434 1.049 0 1.834.09 2.354.268.52.18.951.455 1.295.83.342.375.602.85.773 1.426l-2.824.469a1.452 1.452 0 0 0-.594-.768c-.279-.178-.635-.266-1.068-.266-.643 0-1.156.211-1.539.631s-.574 1.086-.574 1.996c0 .967.193 1.658.578 2.074.387.416.924.623 1.613.623.328 0 .641-.045.938-.137s.637-.246 1.021-.465v-.85h-1.966v.002zM116.93 146.127h8.939v2.201h-3.002v6.711h-2.935v-6.711h-3.002v-2.201zM129.846 148.654c.357-.395.834-.592 1.426-.592.617 0 1.107.195 1.467.582.361.389.541 1.004.541 1.844 0 1-.172 1.693-.518 2.08-.346.385-.834.578-1.465.578-.613 0-1.098-.197-1.455-.592s-.535-1.043-.535-1.943c0-.91.179-1.56.539-1.957zm-2.821 4.543c.438.693 1.006 1.199 1.709 1.518.701.318 1.588.479 2.66.479 1.053 0 1.934-.184 2.641-.553a3.853 3.853 0 0 0 1.619-1.555c.375-.666.561-1.521.561-2.564 0-1.439-.428-2.557-1.283-3.354-.854-.797-2.072-1.195-3.654-1.195-1.541 0-2.746.406-3.609 1.219-.865.812-1.297 1.945-1.297 3.4-.001 1.043.218 1.912.653 2.605zM137.828 146.127h2.74l3.594 4.943v-4.943h2.76v8.912h-2.76l-3.574-4.916v4.916h-2.76v-8.912z"/><path d="M52.282 165.758c-.104-.742-.376-1.654-1.339-1.654-.434 0-.807.256-1.035.564-.212.27-.3.676-.3 1.07 0 .689.254 1.352.885 1.883.606.525 1.042.902 2.003 1.611 1.022.814 1.746 1.332 2.27 1.92.602.703 1.215 1.672 1.215 3.029 0 1.012-.329 2.107-1.186 2.955-.765.758-1.972 1.6-4.062 1.6-3.555 0-4.974-1.688-5.133-3.953l3.517-.059c.12.949.443 1.869 1.538 1.869.639 0 1.038-.393 1.264-.729.221-.332.315-.834.315-1.283 0-.758-.275-1.283-.713-1.771-.39-.393-.89-.787-1.954-1.629-1.098-.818-1.937-1.518-2.51-2.217a4.647 4.647 0 0 1-1.094-3.006c0-1.061.375-2.033 1.219-2.725.833-.75 2.025-1.273 3.764-1.273 3.156 0 4.541 1.695 4.691 3.756l-3.355.042zM65.778 168.979v2.197h-4.312v5.043h5.849v2.199h-9.66v-16.139h9.504v2.2h-5.693v4.5h4.312zM78.467 174.355c-.146-2.059-.232-6.182-.232-12.076h3.351v16.139h-4.799c-2.26-5.994-3.698-10.07-4.231-12.074h-.128c.118 2.023.204 6.127.204 12.074H69.28v-16.139h4.821c2.243 5.904 3.683 10.043 4.241 12.076h.125zM90.963 171.959h-3.035l.739-3.848c.227-1.182.467-2.385.684-3.881h.181c.222 1.492.458 2.643.695 3.857l.736 3.872zm.394 2.189l.807 4.27h3.878L92 162.279h-5.105l-4.039 16.139h3.873l.803-4.27h3.825zM106.535 164.445h-3.18v13.973h-3.703v-13.973h-3.183v-2.166h10.066v2.166zM113.836 164.096c1.381 0 2.516 1.393 2.516 6.25 0 4.816-1.135 6.211-2.516 6.211-1.379 0-2.516-1.395-2.516-6.211 0-4.857 1.137-6.25 2.49-6.25h.026zm-6.313 6.252c0 5.912 2.307 8.389 6.312 8.389 4.008 0 6.314-2.477 6.314-8.389s-2.307-8.387-6.314-8.387c-4.006 0-6.312 2.475-6.312 8.363v.024zM125.832 169.918v-5.447h1.41c1.984 0 2.77.908 2.77 2.766 0 1.881-.939 2.682-2.609 2.682h-1.571v-.001zm4.475 1.639c1.848-.377 3.58-1.531 3.58-4.391 0-3.977-3.465-4.887-6.73-4.887h-5.098v16.139h3.785v-6.357h1.164l3.521 6.357h4.396l-4.618-6.861zM141.975 165.758c-.104-.742-.375-1.654-1.338-1.654-.434 0-.807.256-1.035.564-.213.27-.301.676-.301 1.07 0 .689.256 1.352.885 1.883.607.525 1.043.902 2.004 1.611 1.021.814 1.746 1.332 2.27 1.92.602.703 1.215 1.672 1.215 3.029 0 1.012-.328 2.107-1.186 2.955-.766.758-1.973 1.6-4.062 1.6-3.555 0-4.973-1.688-5.133-3.953l3.518-.059c.119.949.443 1.869 1.537 1.869.639 0 1.037-.393 1.264-.729.221-.332.314-.834.314-1.283 0-.758-.273-1.283-.713-1.771-.391-.393-.891-.787-1.953-1.629-1.1-.818-1.938-1.518-2.512-2.217a4.647 4.647 0 0 1-1.094-3.006c0-1.061.375-2.033 1.221-2.725.832-.75 2.025-1.273 3.764-1.273 3.156 0 4.541 1.695 4.689 3.756l-3.354.042z" fill="#e5c14f"/><path d="M70.083 91.491c-.254.253-.319.96-.334 1.17a.21.21 0 0 0 .194.222.208.208 0 0 0 .222-.194c.024-.358.116-.807.213-.904a.206.206 0 0 0 0-.294.21.21 0 0 0-.295 0zM70.653 91.472c-.263.196-.302.907-.302 1.312a.209.209 0 0 0 .417 0c0-.291.032-.547.073-.741l.085.184c.13.333.208.534.416.521.067-.005.093-.079.129-.138.036-.058.004-.166-.022-.229l-.134-.307c-.145-.368-.242-.596-.427-.648l-.1-.028-.135.074z" fill="#d4a373"/><path fill="#429f88" d="M96.218 12.647l1.466-.027-.106-2.789-.348-.24.055-2.789-.879-.079-.188 5.924z"/><path d="M103.959 41.385s.605-2.324-.949-1.549c-.346.603-.432 1.205-1.209 1.291-.779.086.258 3.186 3.799 4.219.518-1.55 2.158-4.477 5.873-4.219 0 0 .584-.685-.52-1.033-.678-.609-2.504-2.066-2.936-2.066s-1.814-.344-1.814 0 .604.517 1.037.603c0 0 2.85 1.292 2.072 1.464-.777.171-4.059 1.291-4.576 3.185-.691-.431-1.295-.947-1.035-1.722l.258-.173z" fill="#b43a30"/><path d="M105.34 38.802s-1.123.603-2.072.086c-.194-.743 1.728-.947 2.072-.086z" fill="#b43a30"/><path d="M106.814 39.517c-.85-.781-2.973.716-2.123 2.051.914.749 2.68-1.79 2.123-2.051z" fill="#d7c2b9"/></g></svg>